STARTFONT 2.1
COMMENT
COMMENT Converted from OpenType font "ChivoMono-Regular.ttf" by "otf2bdf 3.0".
COMMENT
FONT -FreeType-chivo mono-Medium-R-Normal--22-160-100-100-P-107-ISO10646-1
SIZE 16 100 100
FONTBOUNDINGBOX 16 32 -1 -7
STARTPROPERTIES 19
FOUNDRY "FreeType"
FAMILY_NAME "chivo mono"
WEIGHT_NAME "Medium"
SLANT "R"
SETWIDTH_NAME "Normal"
ADD_STYLE_NAME ""
PIXEL_SIZE 22
POINT_SIZE 160
RESOLUTION_X 100
RESOLUTION_Y 100
SPACING "P"
AVERAGE_WIDTH 107
CHARSET_REGISTRY "ISO10646"
CHARSET_ENCODING "1"
FONT_ASCENT 20
FONT_DESCENT 5
COPYRIGHT "Copyright 2018 The Chivo Project Authors (https://github.com/Omnibus-Type/Chivo)"
_OTF_FONTFILE "ChivoMono-Regular.ttf"
_OTF_PSNAME "ChivoMono-Regular"
ENDPROPERTIES
CHARS 642
STARTCHAR 000D
ENCODING 13
SWIDTH 585 0
DWIDTH 13 0
BBX 0 0 0 0
BITMAP
ENDCHAR
STARTCHAR 0020
ENCODING 32
SWIDTH 585 0
DWIDTH 13 0
BBX 0 0 0 0
BITMAP
ENDCHAR
STARTCHAR 0021
ENCODING 33
SWIDTH 585 0
DWIDTH 13 0
BBX 3 15 5 0
BITMAP
E0
E0
E0
60
60
60
60
60
60
60
40
00
E0
E0
E0
ENDCHAR
STARTCHAR 0022
ENCODING 34
SWIDTH 585 0
DWIDTH 13 0
BBX 5 6 4 9
BITMAP
D8
D8
D8
D8
C8
C8
ENDCHAR
STARTCHAR 0023
ENCODING 35
SWIDTH 585 0
DWIDTH 13 0
BBX 13 15 0 0
BITMAP
0630
0420
0420
0C60
7FF8
7FF8
0840
18C0
18C0
FFF0
FFF0
1080
3180
3180
3180
ENDCHAR
STARTCHAR 0024
ENCODING 36
SWIDTH 585 0
DWIDTH 13 0
BBX 11 18 1 -1
BITMAP
0400
0400
1F00
7FC0
60E0
E060
E000
7000
3F00
1FC0
01E0
0060
C060
C060
70E0
3FC0
0E00
0400
ENDCHAR
STARTCHAR 0025
ENCODING 37
SWIDTH 585 0
DWIDTH 13 0
BBX 13 15 0 0
BITMAP
7818
C830
8C20
8C40
8CC0
C980
7800
2070
00D8
0C88
0888
1088
3088
60D8
C070
ENDCHAR
STARTCHAR 0026
ENCODING 38
SWIDTH 585 0
DWIDTH 13 0
BBX 12 15 1 0
BITMAP
3E00
7200
6000
E040
6040
60C0
3FF0
3FF0
70C0
E0C0
C0C0
C0C0
E0C0
7FC0
1FC0
ENDCHAR
STARTCHAR 0027
ENCODING 39
SWIDTH 585 0
DWIDTH 13 0
BBX 2 6 6 9
BITMAP
C0
C0
C0
C0
80
80
ENDCHAR
STARTCHAR 0028
ENCODING 40
SWIDTH 585 0
DWIDTH 13 0
BBX 5 18 5 -3
BITMAP
18
30
60
60
40
C0
C0
C0
C0
C0
C0
C0
C0
C0
60
60
20
38
ENDCHAR
STARTCHAR 0029
ENCODING 41
SWIDTH 585 0
DWIDTH 13 0
BBX 5 18 4 -3
BITMAP
C0
40
60
20
30
30
30
18
18
18
18
30
30
30
30
60
60
C0
ENDCHAR
STARTCHAR 002A
ENCODING 42
SWIDTH 585 0
DWIDTH 13 0
BBX 9 8 2 7
BITMAP
0C00
0800
C880
FF80
0C00
1400
3600
6300
ENDCHAR
STARTCHAR 002B
ENCODING 43
SWIDTH 585 0
DWIDTH 13 0
BBX 11 11 1 0
BITMAP
0600
0600
0600
0600
FFE0
FFE0
0600
0600
0600
0600
0600
ENDCHAR
STARTCHAR 002C
ENCODING 44
SWIDTH 585 0
DWIDTH 13 0
BBX 3 6 5 -3
BITMAP
E0
E0
E0
60
60
C0
ENDCHAR
STARTCHAR 002D
ENCODING 45
SWIDTH 585 0
DWIDTH 13 0
BBX 5 2 4 5
BITMAP
F8
F8
ENDCHAR
STARTCHAR 002E
ENCODING 46
SWIDTH 585 0
DWIDTH 13 0
BBX 3 3 5 0
BITMAP
E0
E0
E0
ENDCHAR
STARTCHAR 002F
ENCODING 47
SWIDTH 585 0
DWIDTH 13 0
BBX 13 19 0 -4
BITMAP
0018
0030
0020
0060
00C0
00C0
0180
0180
0300
0200
0600
0C00
0C00
1800
1800
3000
3000
6000
C000
ENDCHAR
STARTCHAR 0030
ENCODING 48
SWIDTH 585 0
DWIDTH 13 0
BBX 11 15 1 0
BITMAP
3F80
79C0
60E0
E060
E060
E060
E060
E060
E060
E060
E060
60E0
60C0
3FC0
1F80
ENDCHAR
STARTCHAR 0031
ENCODING 49
SWIDTH 585 0
DWIDTH 13 0
BBX 10 15 2 0
BITMAP
3C00
FC00
0C00
0C00
0C00
0C00
0C00
0C00
0C00
0C00
0C00
0C00
0C00
FFC0
FFC0
ENDCHAR
STARTCHAR 0032
ENCODING 50
SWIDTH 585 0
DWIDTH 13 0
BBX 11 15 1 0
BITMAP
3F80
79C0
60E0
6060
E060
00E0
00C0
01C0
0780
0E00
3C00
7000
6000
FFE0
FFE0
ENDCHAR
STARTCHAR 0033
ENCODING 51
SWIDTH 585 0
DWIDTH 13 0
BBX 11 15 1 0
BITMAP
3F80
71C0
60C0
C0E0
00E0
00C0
0F80
0F80
00C0
00E0
0060
C060
E0E0
7FC0
3F80
ENDCHAR
STARTCHAR 0034
ENCODING 52
SWIDTH 585 0
DWIDTH 13 0
BBX 11 15 1 0
BITMAP
0E00
0C00
1C80
1880
3980
3180
7180
6180
C180
FFE0
FFE0
0180
0180
0180
0180
ENDCHAR
STARTCHAR 0035
ENCODING 53
SWIDTH 585 0
DWIDTH 13 0
BBX 11 15 1 0
BITMAP
3FC0
7FC0
6000
6000
6000
6F00
7FC0
70C0
00E0
0060
E060
6060
60C0
3FC0
1F80
ENDCHAR
STARTCHAR 0036
ENCODING 54
SWIDTH 585 0
DWIDTH 13 0
BBX 10 15 2 0
BITMAP
3F00
7380
C1C0
C0C0
C0C0
CC00
FF80
E180
C0C0
C0C0
C0C0
C0C0
E1C0
7F80
3F00
ENDCHAR
STARTCHAR 0037
ENCODING 55
SWIDTH 585 0
DWIDTH 13 0
BBX 11 15 1 0
BITMAP
FFE0
FFE0
00C0
0180
0380
0300
0600
0600
0E00
0C00
0C00
1C00
1C00
1C00
1C00
ENDCHAR
STARTCHAR 0038
ENCODING 56
SWIDTH 585 0
DWIDTH 13 0
BBX 11 15 1 0
BITMAP
3F80
71C0
60C0
60E0
60C0
60C0
3F80
3F80
70C0
6060
E060
E060
60E0
7BC0
3F80
ENDCHAR
STARTCHAR 0039
ENCODING 57
SWIDTH 585 0
DWIDTH 13 0
BBX 11 15 1 0
BITMAP
3F80
71C0
60C0
C0E0
C0E0
C0E0
E0E0
71E0
3FE0
00E0
C0E0
E0E0
60C0
7FC0
1F00
ENDCHAR
STARTCHAR 003A
ENCODING 58
SWIDTH 585 0
DWIDTH 13 0
BBX 3 12 5 0
BITMAP
E0
E0
E0
00
00
00
00
00
00
E0
E0
E0
ENDCHAR
STARTCHAR 003B
ENCODING 59
SWIDTH 585 0
DWIDTH 13 0
BBX 3 15 5 -3
BITMAP
E0
E0
E0
00
00
00
00
00
00
E0
E0
E0
60
60
C0
ENDCHAR
STARTCHAR 003C
ENCODING 60
SWIDTH 585 0
DWIDTH 13 0
BBX 11 11 1 0
BITMAP
0060
01E0
0F80
3E00
F000
C000
F800
3E00
07C0
01E0
0020
ENDCHAR
STARTCHAR 003D
ENCODING 61
SWIDTH 585 0
DWIDTH 13 0
BBX 11 7 1 2
BITMAP
FFE0
FFE0
0000
0000
0000
FFE0
FFE0
ENDCHAR
STARTCHAR 003E
ENCODING 62
SWIDTH 585 0
DWIDTH 13 0
BBX 12 11 1 0
BITMAP
C000
F800
3E00
07C0
01F0
0070
01F0
0F80
7C00
F000
8000
ENDCHAR
STARTCHAR 003F
ENCODING 63
SWIDTH 585 0
DWIDTH 13 0
BBX 10 15 2 0
BITMAP
3F00
6380
C180
C1C0
C1C0
0180
0380
0600
0C00
0C00
0C00
0000
1C00
1C00
1C00
ENDCHAR
STARTCHAR 0040
ENCODING 64
SWIDTH 585 0
DWIDTH 13 0
BBX 13 19 0 -4
BITMAP
1FC0
3030
6010
4318
4F88
D8C8
98C8
80C8
83C8
8FC8
98C8
98C8
D8C8
DDD8
4F70
6000
3000
1FC0
0600
ENDCHAR
STARTCHAR 0041
ENCODING 65
SWIDTH 585 0
DWIDTH 13 0
BBX 13 15 0 0
BITMAP
0700
0780
0D80
0D80
0DC0
18C0
18C0
18E0
3860
3060
3FF0
7FF0
6030
6038
E038
ENDCHAR
STARTCHAR 0042
ENCODING 66
SWIDTH 585 0
DWIDTH 13 0
BBX 10 15 2 0
BITMAP
FF80
FF80
C1C0
C0C0
C0C0
C180
FF00
FF00
C1C0
C0C0
C0C0
C0C0
C1C0
FF80
FF00
ENDCHAR
STARTCHAR 0043
ENCODING 67
SWIDTH 585 0
DWIDTH 13 0
BBX 11 15 1 0
BITMAP
3F80
79C0
60E0
E060
C060
C060
C000
C000
C000
C060
C060
E060
60E0
7FC0
3F80
ENDCHAR
STARTCHAR 0044
ENCODING 68
SWIDTH 585 0
DWIDTH 13 0
BBX 11 15 2 0
BITMAP
FF00
FFC0
C1C0
C0E0
C0E0
C060
C060
C060
C060
C060
C0E0
C0E0
C1C0
FF80
FF00
ENDCHAR
STARTCHAR 0045
ENCODING 69
SWIDTH 585 0
DWIDTH 13 0
BBX 10 15 2 0
BITMAP
FFC0
FFC0
C000
C000
C000
C000
FF80
FF80
C000
C000
C000
C000
C000
FFC0
FFC0
ENDCHAR
STARTCHAR 0046
ENCODING 70
SWIDTH 585 0
DWIDTH 13 0
BBX 10 15 2 0
BITMAP
FFC0
FF80
C000
C000
C000
C000
FF00
FF00
C000
C000
C000
C000
C000
C000
C000
ENDCHAR
STARTCHAR 0047
ENCODING 71
SWIDTH 585 0
DWIDTH 13 0
BBX 11 15 1 0
BITMAP
3F80
79C0
E0E0
E060
C060
C000
C000
C7E0
C7E0
C060
C060
E060
60E0
7FA0
3F20
ENDCHAR
STARTCHAR 0048
ENCODING 72
SWIDTH 585 0
DWIDTH 13 0
BBX 10 15 2 0
BITMAP
C1C0
C1C0
C1C0
C1C0
C1C0
C1C0
FFC0
FFC0
C1C0
C1C0
C1C0
C1C0
C1C0
C1C0
C1C0
ENDCHAR
STARTCHAR 0049
ENCODING 73
SWIDTH 585 0
DWIDTH 13 0
BBX 9 15 2 0
BITMAP
FF80
FF80
1C00
1C00
1C00
1C00
1C00
1C00
1C00
1C00
1C00
1C00
1C00
FF80
FF80
ENDCHAR
STARTCHAR 004A
ENCODING 74
SWIDTH 585 0
DWIDTH 13 0
BBX 9 15 2 0
BITMAP
0180
0180
0180
0180
0180
0180
0180
0180
0180
0180
C180
C180
E180
7F80
3F00
ENDCHAR
STARTCHAR 004B
ENCODING 75
SWIDTH 585 0
DWIDTH 13 0
BBX 11 15 2 0
BITMAP
C0E0
C1C0
C380
C700
C600
CE00
DC00
FC00
FE00
E600
C700
C380
C180
C1C0
C0E0
ENDCHAR
STARTCHAR 004C
ENCODING 76
SWIDTH 585 0
DWIDTH 13 0
BBX 10 15 2 0
BITMAP
E000
E000
E000
E000
E000
E000
E000
E000
E000
E000
E000
E000
E000
FFC0
FFC0
ENDCHAR
STARTCHAR 004D
ENCODING 77
SWIDTH 585 0
DWIDTH 13 0
BBX 11 15 1 0
BITMAP
F0E0
F0E0
F1E0
F1E0
D160
D160
D960
DB60
DB60
CB60
CA60
CE60
CE60
CE60
CE60
ENDCHAR
STARTCHAR 004E
ENCODING 78
SWIDTH 585 0
DWIDTH 13 0
BBX 10 15 2 0
BITMAP
C0C0
E0C0
E0C0
F0C0
F0C0
D8C0
D8C0
CCC0
CCC0
C6C0
C6C0
C3C0
C3C0
C1C0
C1C0
ENDCHAR
STARTCHAR 004F
ENCODING 79
SWIDTH 585 0
DWIDTH 13 0
BBX 12 15 1 0
BITMAP
3F80
79C0
60E0
E060
C060
C060
C070
C070
C070
C060
C060
E060
60E0
7FC0
3F80
ENDCHAR
STARTCHAR 0050
ENCODING 80
SWIDTH 585 0
DWIDTH 13 0
BBX 11 15 2 0
BITMAP
FF80
FFC0
C0C0
C0E0
C0E0
C0E0
C1C0
FF80
FE00
C000
C000
C000
C000
C000
C000
ENDCHAR
STARTCHAR 0051
ENCODING 81
SWIDTH 585 0
DWIDTH 13 0
BBX 12 18 1 -3
BITMAP
3F80
79C0
60E0
E060
C060
C060
C070
C070
C070
C060
C060
E060
60E0
7FC0
1F80
0600
0710
03F0
ENDCHAR
STARTCHAR 0052
ENCODING 82
SWIDTH 585 0
DWIDTH 13 0
BBX 11 15 2 0
BITMAP
FF80
FFC0
C0C0
C0E0
C0C0
C0C0
C1C0
FF00
FF80
C1C0
C0C0
C0C0
C0C0
C0C0
C060
ENDCHAR
STARTCHAR 0053
ENCODING 83
SWIDTH 585 0
DWIDTH 13 0
BBX 11 15 1 0
BITMAP
3F80
71C0
E060
E060
E000
7000
7F00
1FC0
01E0
0060
C060
C060
E0E0
7FE0
3F80
ENDCHAR
STARTCHAR 0054
ENCODING 84
SWIDTH 585 0
DWIDTH 13 0
BBX 12 15 1 0
BITMAP
FFF0
FFF0
0600
0600
0600
0600
0600
0600
0600
0600
0600
0600
0600
0600
0600
ENDCHAR
STARTCHAR 0055
ENCODING 85
SWIDTH 585 0
DWIDTH 13 0
BBX 11 15 1 0
BITMAP
E060
E060
E060
E060
E060
E060
E060
E060
E060
E060
E060
60E0
60C0
7FC0
1F80
ENDCHAR
STARTCHAR 0056
ENCODING 86
SWIDTH 585 0
DWIDTH 13 0
BBX 13 15 0 0
BITMAP
E018
6030
7030
3030
3070
3060
3860
18E0
18C0
1CC0
0DC0
0D80
0F80
0780
0700
ENDCHAR
STARTCHAR 0057
ENCODING 87
SWIDTH 585 0
DWIDTH 13 0
BBX 13 15 0 0
BITMAP
C318
C318
E718
6718
6798
6590
65B0
65B0
7DB0
3CB0
3CB0
38E0
38E0
38E0
38E0
ENDCHAR
STARTCHAR 0058
ENCODING 88
SWIDTH 585 0
DWIDTH 13 0
BBX 13 15 0 0
BITMAP
7038
3070
3860
1CC0
0DC0
0F80
0700
0700
0F80
0DC0
18C0
38E0
3070
7030
E038
ENDCHAR
STARTCHAR 0059
ENCODING 89
SWIDTH 585 0
DWIDTH 13 0
BBX 13 15 0 0
BITMAP
E038
7030
3060
3860
18C0
1CC0
0F80
0780
0700
0300
0300
0300
0300
0300
0300
ENDCHAR
STARTCHAR 005A
ENCODING 90
SWIDTH 585 0
DWIDTH 13 0
BBX 11 15 1 0
BITMAP
FFE0
FFE0
01C0
0180
0380
0700
0600
0E00
0C00
1C00
3800
3000
7000
FFE0
FFE0
ENDCHAR
STARTCHAR 005B
ENCODING 91
SWIDTH 585 0
DWIDTH 13 0
BBX 5 19 5 -4
BITMAP
F8
C0
C0
C0
C0
C0
C0
C0
C0
C0
C0
C0
C0
C0
C0
C0
C0
F8
F8
ENDCHAR
STARTCHAR 005C
ENCODING 92
SWIDTH 585 0
DWIDTH 13 0
BBX 13 19 0 -4
BITMAP
E000
6000
3000
3000
1800
0800
0C00
0600
0600
0300
0300
0180
0080
00C0
0060
0060
0030
0030
0018
ENDCHAR
STARTCHAR 005D
ENCODING 93
SWIDTH 585 0
DWIDTH 13 0
BBX 5 19 3 -4
BITMAP
F8
18
18
18
18
18
18
18
18
18
18
18
18
18
18
18
18
F8
F8
ENDCHAR
STARTCHAR 005E
ENCODING 94
SWIDTH 585 0
DWIDTH 13 0
BBX 11 11 1 0
BITMAP
0E00
0F00
1B00
1B00
1980
3180
3080
60C0
60C0
6060
C060
ENDCHAR
STARTCHAR 005F
ENCODING 95
SWIDTH 585 0
DWIDTH 13 0
BBX 11 2 1 -3
BITMAP
FFE0
FFE0
ENDCHAR
STARTCHAR 0060
ENCODING 96
SWIDTH 585 0
DWIDTH 13 0
BBX 4 4 5 13
BITMAP
C0
C0
60
30
ENDCHAR
STARTCHAR 0061
ENCODING 97
SWIDTH 585 0
DWIDTH 13 0
BBX 12 12 1 0
BITMAP
0E00
3F80
71C0
60C0
00C0
0FC0
3FC0
60C0
E0C0
61C0
73D0
3EF0
ENDCHAR
STARTCHAR 0062
ENCODING 98
SWIDTH 585 0
DWIDTH 13 0
BBX 10 16 2 0
BITMAP
C000
C000
C000
C000
C400
DF00
E180
E1C0
C0C0
C0C0
C0C0
C0C0
C0C0
E1C0
F380
DF00
ENDCHAR
STARTCHAR 0063
ENCODING 99
SWIDTH 585 0
DWIDTH 13 0
BBX 10 12 1 0
BITMAP
0600
3F80
71C0
60C0
60C0
E000
E000
E000
60C0
60C0
39C0
1F00
ENDCHAR
STARTCHAR 0064
ENCODING 100
SWIDTH 585 0
DWIDTH 13 0
BBX 10 16 1 0
BITMAP
00C0
00C0
00C0
00C0
0CC0
3FC0
71C0
60C0
E0C0
C0C0
C0C0
E0C0
E0C0
61C0
73C0
3EC0
ENDCHAR
STARTCHAR 0065
ENCODING 101
SWIDTH 585 0
DWIDTH 13 0
BBX 11 12 1 0
BITMAP
0600
3F80
71C0
60C0
6060
FFE0
FFE0
E000
6060
60C0
39C0
1F80
ENDCHAR
STARTCHAR 0066
ENCODING 102
SWIDTH 585 0
DWIDTH 13 0
BBX 10 16 2 0
BITMAP
07C0
0FC0
1C00
1800
1800
FFC0
1800
1800
1800
1800
1800
1800
1800
1800
FFC0
FFC0
ENDCHAR
STARTCHAR 0067
ENCODING 103
SWIDTH 585 0
DWIDTH 13 0
BBX 12 17 1 -4
BITMAP
0030
0660
3F80
70C0
60C0
60C0
70C0
3F80
7E00
6000
6000
7FC0
7FE0
C070
C030
E060
7FC0
ENDCHAR
STARTCHAR 0068
ENCODING 104
SWIDTH 585 0
DWIDTH 13 0
BBX 10 16 2 0
BITMAP
C000
C000
C000
C000
C400
DF00
E380
C180
C1C0
C1C0
C1C0
C1C0
C1C0
C1C0
C1C0
C1C0
ENDCHAR
STARTCHAR 0069
ENCODING 105
SWIDTH 585 0
DWIDTH 13 0
BBX 10 16 2 0
BITMAP
0C00
0C00
0000
0000
0000
FC00
0C00
0C00
0C00
0C00
0C00
0C00
0C00
0C00
FFC0
FFC0
ENDCHAR
STARTCHAR 006A
ENCODING 106
SWIDTH 585 0
DWIDTH 13 0
BBX 6 20 2 -4
BITMAP
0C
0C
00
00
00
FC
0C
0C
0C
0C
0C
0C
0C
0C
0C
0C
0C
0C
FC
F8
ENDCHAR
STARTCHAR 006B
ENCODING 107
SWIDTH 585 0
DWIDTH 13 0
BBX 10 16 2 0
BITMAP
C000
C000
C000
C000
C040
C380
C300
C600
CE00
DC00
FC00
FE00
E600
C700
C380
C1C0
ENDCHAR
STARTCHAR 006C
ENCODING 108
SWIDTH 585 0
DWIDTH 13 0
BBX 10 16 2 0
BITMAP
FC00
FC00
0C00
0C00
0C00
0C00
0C00
0C00
0C00
0C00
0C00
0C00
0C00
0C00
FFC0
FFC0
ENDCHAR
STARTCHAR 006D
ENCODING 109
SWIDTH 585 0
DWIDTH 13 0
BBX 11 12 1 0
BITMAP
1880
FDE0
EE60
C660
C660
C660
C660
C660
C660
C660
C660
C660
ENDCHAR
STARTCHAR 006E
ENCODING 110
SWIDTH 585 0
DWIDTH 13 0
BBX 10 12 2 0
BITMAP
0400
FF00
E380
E180
C1C0
C1C0
C1C0
C1C0
C1C0
C1C0
C1C0
C1C0
ENDCHAR
STARTCHAR 006F
ENCODING 111
SWIDTH 585 0
DWIDTH 13 0
BBX 11 12 1 0
BITMAP
0600
3F80
71C0
60C0
60E0
E060
E060
E060
60E0
60C0
39C0
1F00
ENDCHAR
STARTCHAR 0070
ENCODING 112
SWIDTH 585 0
DWIDTH 13 0
BBX 10 16 2 -4
BITMAP
0400
DF80
E180
E1C0
C0C0
C0C0
C0C0
C0C0
C0C0
E1C0
F380
DF00
C000
C000
C000
C000
ENDCHAR
STARTCHAR 0071
ENCODING 113
SWIDTH 585 0
DWIDTH 13 0
BBX 10 16 1 -4
BITMAP
0C00
3FC0
71C0
60C0
E0C0
C0C0
C0C0
C0C0
E0C0
61C0
73C0
3EC0
00C0
00C0
00C0
00C0
ENDCHAR
STARTCHAR 0072
ENCODING 114
SWIDTH 585 0
DWIDTH 13 0
BBX 11 12 1 0
BITMAP
0180
FFE0
1C60
1860
1860
1800
1800
1800
1800
1800
FFC0
FFC0
ENDCHAR
STARTCHAR 0073
ENCODING 115
SWIDTH 585 0
DWIDTH 13 0
BBX 10 12 2 0
BITMAP
0C00
7F00
C180
C180
E000
FC00
3F80
0380
C1C0
C1C0
E380
7F00
ENDCHAR
STARTCHAR 0074
ENCODING 116
SWIDTH 585 0
DWIDTH 13 0
BBX 11 15 1 0
BITMAP
0C00
0C00
0C00
1C00
FFE0
1C00
1C00
1C00
1C00
1C00
1C00
1C00
1C00
0FE0
07E0
ENDCHAR
STARTCHAR 0075
ENCODING 117
SWIDTH 585 0
DWIDTH 13 0
BBX 11 11 2 0
BITMAP
C180
C180
C180
C180
C180
C180
C180
C180
C380
FFE0
7CE0
ENDCHAR
STARTCHAR 0076
ENCODING 118
SWIDTH 585 0
DWIDTH 13 0
BBX 11 11 1 0
BITMAP
E060
60E0
70C0
30C0
3180
3980
1980
1B00
1F00
0E00
0E00
ENDCHAR
STARTCHAR 0077
ENCODING 119
SWIDTH 585 0
DWIDTH 13 0
BBX 13 11 0 0
BITMAP
C318
C718
6718
6790
65B0
6DB0
2CB0
3CB0
38E0
38E0
38E0
ENDCHAR
STARTCHAR 0078
ENCODING 120
SWIDTH 585 0
DWIDTH 13 0
BBX 11 11 1 0
BITMAP
F0E0
31C0
3980
1F00
0F00
0E00
1F00
1B80
3180
70C0
E0E0
ENDCHAR
STARTCHAR 0079
ENCODING 121
SWIDTH 585 0
DWIDTH 13 0
BBX 11 15 1 -4
BITMAP
E060
60C0
70C0
30C0
3180
1980
1B00
1F00
0F00
0E00
0E00
0C00
0C00
7800
7800
ENDCHAR
STARTCHAR 007A
ENCODING 122
SWIDTH 585 0
DWIDTH 13 0
BBX 9 11 2 0
BITMAP
7F80
0300
0700
0E00
0C00
1C00
1800
3000
7000
7F80
FF80
ENDCHAR
STARTCHAR 007B
ENCODING 123
SWIDTH 585 0
DWIDTH 13 0
BBX 5 19 4 -4
BITMAP
38
30
30
30
30
30
20
20
E0
E0
20
20
30
30
30
30
30
38
08
ENDCHAR
STARTCHAR 007C
ENCODING 124
SWIDTH 585 0
DWIDTH 13 0
BBX 1 20 6 -4
BITMAP
80
80
80
80
80
80
80
80
80
80
80
80
80
80
80
80
80
80
80
80
ENDCHAR
STARTCHAR 007D
ENCODING 125
SWIDTH 585 0
DWIDTH 13 0
BBX 5 19 4 -4
BITMAP
E0
20
30
30
30
30
30
30
38
18
30
30
30
30
30
30
30
E0
80
ENDCHAR
STARTCHAR 007E
ENCODING 126
SWIDTH 585 0
DWIDTH 13 0
BBX 13 4 0 5
BITMAP
0008
3E08
FFF8
81E0
ENDCHAR
STARTCHAR 00A0
ENCODING 160
SWIDTH 585 0
DWIDTH 13 0
BBX 0 0 0 0
BITMAP
ENDCHAR
STARTCHAR 00A1
ENCODING 161
SWIDTH 585 0
DWIDTH 13 0
BBX 3 15 5 -4
BITMAP
E0
E0
00
00
40
60
60
60
60
60
60
E0
E0
E0
E0
ENDCHAR
STARTCHAR 00A2
ENCODING 162
SWIDTH 585 0
DWIDTH 13 0
BBX 10 15 2 0
BITMAP
0C00
0800
3F00
6180
C180
C0C0
C000
C000
C000
C0C0
E180
7380
3F00
0800
0C00
ENDCHAR
STARTCHAR 00A3
ENCODING 163
SWIDTH 585 0
DWIDTH 13 0
BBX 11 16 1 0
BITMAP
0200
1FC0
1CE0
3060
3060
3000
3000
3000
FF00
3000
3000
3000
3000
3000
FFE0
FFE0
ENDCHAR
STARTCHAR 00A4
ENCODING 164
SWIDTH 585 0
DWIDTH 13 0
BBX 11 11 1 2
BITMAP
DF20
7FE0
60C0
C060
C060
C020
C060
C060
60C0
7FE0
DF20
ENDCHAR
STARTCHAR 00A5
ENCODING 165
SWIDTH 585 0
DWIDTH 13 0
BBX 13 15 0 0
BITMAP
E038
7030
3060
3860
18C0
7CF0
7FF0
0780
7FF0
7FF0
0300
0300
0300
0300
0300
ENDCHAR
STARTCHAR 00A6
ENCODING 166
SWIDTH 585 0
DWIDTH 13 0
BBX 1 20 6 -4
BITMAP
80
80
80
80
80
80
80
80
00
00
00
00
80
80
80
80
80
80
80
80
ENDCHAR
STARTCHAR 00A7
ENCODING 167
SWIDTH 585 0
DWIDTH 13 0
BBX 10 19 2 -4
BITMAP
7F00
E380
C180
C000
E000
7800
7E00
C780
C180
C0C0
E080
7980
1F00
0700
0180
0180
C180
7380
3E00
ENDCHAR
STARTCHAR 00A8
ENCODING 168
SWIDTH 585 0
DWIDTH 13 0
BBX 7 2 3 14
BITMAP
C6
C6
ENDCHAR
STARTCHAR 00A9
ENCODING 169
SWIDTH 585 0
DWIDTH 13 0
BBX 13 15 0 0
BITMAP
1FC0
2020
4010
4F88
98C8
9848
9808
9808
9848
9848
48C8
4790
6010
3020
0FC0
ENDCHAR
STARTCHAR 00AA
ENCODING 170
SWIDTH 585 0
DWIDTH 13 0
BBX 7 7 3 8
BITMAP
7C
C4
1C
64
C4
CE
76
ENDCHAR
STARTCHAR 00AB
ENCODING 171
SWIDTH 585 0
DWIDTH 13 0
BBX 9 7 2 4
BITMAP
3180
2300
6600
C600
6600
2300
3180
ENDCHAR
STARTCHAR 00AC
ENCODING 172
SWIDTH 585 0
DWIDTH 13 0
BBX 11 6 1 4
BITMAP
FFE0
FFE0
0060
0060
0060
0060
ENDCHAR
STARTCHAR 00AD
ENCODING 173
SWIDTH 585 0
DWIDTH 13 0
BBX 5 2 4 5
BITMAP
F8
F8
ENDCHAR
STARTCHAR 00AE
ENCODING 174
SWIDTH 585 0
DWIDTH 13 0
BBX 13 15 0 0
BITMAP
1FC0
2020
4010
4F88
88C8
8848
88C8
8F88
88C8
88C8
4848
4870
6010
3020
0FC0
ENDCHAR
STARTCHAR 00AF
ENCODING 175
SWIDTH 585 0
DWIDTH 13 0
BBX 7 1 3 14
BITMAP
FE
ENDCHAR
STARTCHAR 00B0
ENCODING 176
SWIDTH 585 0
DWIDTH 13 0
BBX 7 6 3 9
BITMAP
7C
46
C2
C2
46
7C
ENDCHAR
STARTCHAR 00B1
ENCODING 177
SWIDTH 585 0
DWIDTH 13 0
BBX 11 11 1 0
BITMAP
0600
0600
0600
FFE0
FFE0
0600
0600
0600
0000
FFE0
FFE0
ENDCHAR
STARTCHAR 00B2
ENCODING 178
SWIDTH 585 0
DWIDTH 13 0
BBX 6 9 4 9
BITMAP
70
D8
8C
08
18
30
C0
FC
FC
ENDCHAR
STARTCHAR 00B3
ENCODING 179
SWIDTH 585 0
DWIDTH 13 0
BBX 6 9 4 9
BITMAP
70
D8
88
08
38
08
8C
D8
70
ENDCHAR
STARTCHAR 00B4
ENCODING 180
SWIDTH 585 0
DWIDTH 13 0
BBX 4 4 5 13
BITMAP
70
60
C0
C0
ENDCHAR
STARTCHAR 00B5
ENCODING 181
SWIDTH 585 0
DWIDTH 13 0
BBX 11 15 2 -4
BITMAP
C180
C180
C180
C180
C180
C180
C180
C180
C380
FFE0
FCE0
C000
C000
C000
C000
ENDCHAR
STARTCHAR 00B6
ENCODING 182
SWIDTH 585 0
DWIDTH 13 0
BBX 10 19 1 -4
BITMAP
3FC0
7D80
FD80
FD80
FD80
FD80
FD80
7D80
3D80
0D80
0D80
0D80
0D80
0D80
0D80
0D80
0D80
0D80
0D80
ENDCHAR
STARTCHAR 00B7
ENCODING 183
SWIDTH 585 0
DWIDTH 13 0
BBX 3 3 5 7
BITMAP
E0
E0
E0
ENDCHAR
STARTCHAR 00B8
ENCODING 184
SWIDTH 585 0
DWIDTH 13 0
BBX 5 4 4 -5
BITMAP
38
08
F8
60
ENDCHAR
STARTCHAR 00B9
ENCODING 185
SWIDTH 585 0
DWIDTH 13 0
BBX 5 9 4 9
BITMAP
20
E0
20
20
20
20
20
F8
F8
ENDCHAR
STARTCHAR 00BA
ENCODING 186
SWIDTH 585 0
DWIDTH 13 0
BBX 7 8 3 8
BITMAP
10
7C
46
C6
C6
46
6C
18
ENDCHAR
STARTCHAR 00BB
ENCODING 187
SWIDTH 585 0
DWIDTH 13 0
BBX 9 7 2 4
BITMAP
E600
6300
3380
3980
3380
6300
E600
ENDCHAR
STARTCHAR 00BC
ENCODING 188
SWIDTH 585 0
DWIDTH 13 0
BBX 13 16 0 0
BITMAP
3000
F018
3030
3020
3040
30C0
3180
F820
F860
0050
0CD0
0890
11F8
31F8
6010
C010
ENDCHAR
STARTCHAR 00BD
ENCODING 189
SWIDTH 585 0
DWIDTH 13 0
BBX 13 16 0 0
BITMAP
3000
F018
3030
3020
3040
3080
3180
F870
F8D8
0188
0C08
1818
1070
20C0
60F8
C1F8
ENDCHAR
STARTCHAR 00BE
ENCODING 190
SWIDTH 585 0
DWIDTH 13 0
BBX 13 16 0 0
BITMAP
3800
CC18
8C30
0C20
3840
0CC0
8580
CC20
7860
0050
0CD0
0890
11F8
31F8
6010
C010
ENDCHAR
STARTCHAR 00BF
ENCODING 191
SWIDTH 585 0
DWIDTH 13 0
BBX 10 15 2 -4
BITMAP
1C00
1C00
0000
0000
1800
1800
1800
7000
E000
C000
C1C0
C180
E180
7F00
3E00
ENDCHAR
STARTCHAR 00C0
ENCODING 192
SWIDTH 585 0
DWIDTH 13 0
BBX 13 20 0 0
BITMAP
1C00
0E00
0600
0100
0000
0700
0780
0D80
0D80
0DC0
18C0
18C0
18E0
3860
3060
3FF0
7FF0
6030
6038
E038
ENDCHAR
STARTCHAR 00C1
ENCODING 193
SWIDTH 585 0
DWIDTH 13 0
BBX 13 20 0 0
BITMAP
00C0
0180
0300
0000
0000
0700
0780
0D80
0D80
0DC0
18C0
18C0
18E0
3860
3060
3FF0
7FF0
6030
6038
E038
ENDCHAR
STARTCHAR 00C2
ENCODING 194
SWIDTH 585 0
DWIDTH 13 0
BBX 13 20 0 0
BITMAP
0700
0D80
18C0
0000
0000
0700
0780
0D80
0D80
0DC0
18C0
18C0
18E0
3860
3060
3FF0
7FF0
6030
6038
E038
ENDCHAR
STARTCHAR 00C3
ENCODING 195
SWIDTH 585 0
DWIDTH 13 0
BBX 13 20 0 0
BITMAP
0460
1FC0
13C0
0000
0000
0700
0780
0D80
0D80
0DC0
18C0
18C0
18E0
3860
3060
3FF0
7FF0
6030
6038
E038
ENDCHAR
STARTCHAR 00C4
ENCODING 196
SWIDTH 585 0
DWIDTH 13 0
BBX 13 19 0 0
BITMAP
18C0
18C0
0000
0000
0700
0780
0D80
0D80
0DC0
18C0
18C0
18E0
3860
3060
3FF0
7FF0
6030
6038
E038
ENDCHAR
STARTCHAR 00C5
ENCODING 197
SWIDTH 585 0
DWIDTH 13 0
BBX 13 21 0 0
BITMAP
0700
0C80
0880
0780
0000
0000
0700
0780
0D80
0D80
0DC0
18C0
18C0
18E0
3860
3060
3FF0
7FF0
6030
6038
E038
ENDCHAR
STARTCHAR 00C6
ENCODING 198
SWIDTH 585 0
DWIDTH 13 0
BBX 13 15 0 0
BITMAP
07F8
0FF8
0D80
0D80
1D80
1980
19F0
39F0
3180
3180
7F80
7F80
6180
E1F8
C1F8
ENDCHAR
STARTCHAR 00C7
ENCODING 199
SWIDTH 585 0
DWIDTH 13 0
BBX 11 20 1 -5
BITMAP
3F80
79C0
60E0
E060
C060
C060
C000
C000
C000
C060
C060
E060
60E0
7FC0
3F80
0000
0700
0100
1F00
0C00
ENDCHAR
STARTCHAR 00C8
ENCODING 200
SWIDTH 585 0
DWIDTH 13 0
BBX 10 20 2 0
BITMAP
3000
1800
0C00
0000
0000
FFC0
FFC0
C000
C000
C000
C000
FF80
FF80
C000
C000
C000
C000
C000
FFC0
FFC0
ENDCHAR
STARTCHAR 00C9
ENCODING 201
SWIDTH 585 0
DWIDTH 13 0
BBX 10 20 2 0
BITMAP
0300
0600
0E00
0000
0000
FFC0
FFC0
C000
C000
C000
C000
FF80
FF80
C000
C000
C000
C000
C000
FFC0
FFC0
ENDCHAR
STARTCHAR 00CA
ENCODING 202
SWIDTH 585 0
DWIDTH 13 0
BBX 10 20 2 0
BITMAP
0C00
1E00
7300
0080
0000
FFC0
FFC0
C000
C000
C000
C000
FF80
FF80
C000
C000
C000
C000
C000
FFC0
FFC0
ENDCHAR
STARTCHAR 00CB
ENCODING 203
SWIDTH 585 0
DWIDTH 13 0
BBX 10 19 2 0
BITMAP
7300
7300
0000
0000
FFC0
FFC0
C000
C000
C000
C000
FF80
FF80
C000
C000
C000
C000
C000
FFC0
FFC0
ENDCHAR
STARTCHAR 00CC
ENCODING 204
SWIDTH 585 0
DWIDTH 13 0
BBX 9 20 2 0
BITMAP
7000
3800
1800
0400
0000
FF80
FF80
1C00
1C00
1C00
1C00
1C00
1C00
1C00
1C00
1C00
1C00
1C00
FF80
FF80
ENDCHAR
STARTCHAR 00CD
ENCODING 205
SWIDTH 585 0
DWIDTH 13 0
BBX 9 20 2 0
BITMAP
0300
0600
0C00
0000
0000
FF80
FF80
1C00
1C00
1C00
1C00
1C00
1C00
1C00
1C00
1C00
1C00
1C00
FF80
FF80
ENDCHAR
STARTCHAR 00CE
ENCODING 206
SWIDTH 585 0
DWIDTH 13 0
BBX 9 20 2 0
BITMAP
1C00
3600
6300
0000
0000
FF80
FF80
1C00
1C00
1C00
1C00
1C00
1C00
1C00
1C00
1C00
1C00
1C00
FF80
FF80
ENDCHAR
STARTCHAR 00CF
ENCODING 207
SWIDTH 585 0
DWIDTH 13 0
BBX 9 19 2 0
BITMAP
6300
6300
0000
0000
FF80
FF80
1C00
1C00
1C00
1C00
1C00
1C00
1C00
1C00
1C00
1C00
1C00
FF80
FF80
ENDCHAR
STARTCHAR 00D0
ENCODING 208
SWIDTH 585 0
DWIDTH 13 0
BBX 13 15 0 0
BITMAP
3FC0
3FF0
3070
3038
3038
3018
3018
FF18
3018
3018
3038
3038
3070
3FE0
3FC0
ENDCHAR
STARTCHAR 00D1
ENCODING 209
SWIDTH 585 0
DWIDTH 13 0
BBX 10 20 2 0
BITMAP
1180
7F00
4F00
0000
0000
C0C0
E0C0
E0C0
F0C0
F0C0
D8C0
D8C0
CCC0
CCC0
C6C0
C6C0
C3C0
C3C0
C1C0
C1C0
ENDCHAR
STARTCHAR 00D2
ENCODING 210
SWIDTH 585 0
DWIDTH 13 0
BBX 12 20 1 0
BITMAP
3800
1C00
0C00
0200
0000
3F80
79C0
60E0
E060
C060
C060
C070
C070
C070
C060
C060
E060
60E0
7FC0
3F80
ENDCHAR
STARTCHAR 00D3
ENCODING 211
SWIDTH 585 0
DWIDTH 13 0
BBX 12 20 1 0
BITMAP
0180
0300
0600
0000
0000
3F80
79C0
60E0
E060
C060
C060
C070
C070
C070
C060
C060
E060
60E0
7FC0
3F80
ENDCHAR
STARTCHAR 00D4
ENCODING 212
SWIDTH 585 0
DWIDTH 13 0
BBX 12 20 1 0
BITMAP
0E00
1B00
3180
0000
0000
3F80
79C0
60E0
E060
C060
C060
C070
C070
C070
C060
C060
E060
60E0
7FC0
3F80
ENDCHAR
STARTCHAR 00D5
ENCODING 213
SWIDTH 585 0
DWIDTH 13 0
BBX 12 20 1 0
BITMAP
08C0
3F80
2780
0000
0000
3F80
79C0
60E0
E060
C060
C060
C070
C070
C070
C060
C060
E060
60E0
7FC0
3F80
ENDCHAR
STARTCHAR 00D6
ENCODING 214
SWIDTH 585 0
DWIDTH 13 0
BBX 12 19 1 0
BITMAP
3180
3180
0000
0000
3F80
79C0
60E0
E060
C060
C060
C070
C070
C070
C060
C060
E060
60E0
7FC0
3F80
ENDCHAR
STARTCHAR 00D7
ENCODING 215
SWIDTH 585 0
DWIDTH 13 0
BBX 9 9 2 1
BITMAP
C180
6380
3700
1E00
1C00
3E00
7300
E180
4080
ENDCHAR
STARTCHAR 00D8
ENCODING 216
SWIDTH 585 0
DWIDTH 13 0
BBX 13 18 0 -1
BITMAP
0018
0010
1FE0
3CE0
3070
70F0
60B0
61B0
6338
6238
6638
6430
6C30
7830
3070
3FE0
3FC0
E000
ENDCHAR
STARTCHAR 00D9
ENCODING 217
SWIDTH 585 0
DWIDTH 13 0
BBX 11 20 1 0
BITMAP
3800
1C00
0C00
0200
0000
E060
E060
E060
E060
E060
E060
E060
E060
E060
E060
E060
60E0
60C0
7FC0
1F80
ENDCHAR
STARTCHAR 00DA
ENCODING 218
SWIDTH 585 0
DWIDTH 13 0
BBX 11 20 1 0
BITMAP
0180
0300
0600
0000
0000
E060
E060
E060
E060
E060
E060
E060
E060
E060
E060
E060
60E0
60C0
7FC0
1F80
ENDCHAR
STARTCHAR 00DB
ENCODING 219
SWIDTH 585 0
DWIDTH 13 0
BBX 11 20 1 0
BITMAP
0E00
1B00
3180
0000
0000
E060
E060
E060
E060
E060
E060
E060
E060
E060
E060
E060
60E0
60C0
7FC0
1F80
ENDCHAR
STARTCHAR 00DC
ENCODING 220
SWIDTH 585 0
DWIDTH 13 0
BBX 11 19 1 0
BITMAP
3180
3180
0000
0000
E060
E060
E060
E060
E060
E060
E060
E060
E060
E060
E060
60E0
60C0
7FC0
1F80
ENDCHAR
STARTCHAR 00DD
ENCODING 221
SWIDTH 585 0
DWIDTH 13 0
BBX 13 20 0 0
BITMAP
00C0
0180
0300
0000
8000
6038
7030
3060
3860
18C0
1CC0
0F80
0780
0700
0300
0300
0300
0300
0300
0300
ENDCHAR
STARTCHAR 00DE
ENCODING 222
SWIDTH 585 0
DWIDTH 13 0
BBX 11 15 2 0
BITMAP
C000
C000
C000
FF80
C1C0
C0E0
C0E0
C0E0
C0C0
C3C0
FF80
C000
C000
C000
C000
ENDCHAR
STARTCHAR 00DF
ENCODING 223
SWIDTH 585 0
DWIDTH 13 0
BBX 12 17 0 -1
BITMAP
0FC0
1FE0
3870
3030
3030
F060
30E0
33C0
30E0
3030
3030
3030
3030
3070
33E0
33C0
3000
ENDCHAR
STARTCHAR 00E0
ENCODING 224
SWIDTH 585 0
DWIDTH 13 0
BBX 12 17 1 0
BITMAP
1800
1800
0C00
0600
0000
0E00
3F80
71C0
60C0
00C0
0FC0
3FC0
60C0
E0C0
61C0
73D0
3EF0
ENDCHAR
STARTCHAR 00E1
ENCODING 225
SWIDTH 585 0
DWIDTH 13 0
BBX 12 17 1 0
BITMAP
0300
0600
0600
0C00
0000
0E00
3F80
71C0
60C0
00C0
0FC0
3FC0
60C0
E0C0
61C0
73D0
3EF0
ENDCHAR
STARTCHAR 00E2
ENCODING 226
SWIDTH 585 0
DWIDTH 13 0
BBX 12 17 1 0
BITMAP
0E00
0A00
1B00
3180
0000
0E00
3F80
71C0
60C0
00C0
0FC0
3FC0
60C0
E0C0
61C0
73D0
3EF0
ENDCHAR
STARTCHAR 00E3
ENCODING 227
SWIDTH 585 0
DWIDTH 13 0
BBX 12 16 1 0
BITMAP
3C80
2F80
6300
0000
0E00
3F80
71C0
60C0
00C0
0FC0
3FC0
60C0
E0C0
61C0
73D0
3EF0
ENDCHAR
STARTCHAR 00E4
ENCODING 228
SWIDTH 585 0
DWIDTH 13 0
BBX 12 16 1 0
BITMAP
3180
3180
0000
0000
0E00
3F80
71C0
60C0
00C0
0FC0
3FC0
60C0
E0C0
61C0
73D0
3EF0
ENDCHAR
STARTCHAR 00E5
ENCODING 229
SWIDTH 585 0
DWIDTH 13 0
BBX 12 17 1 0
BITMAP
1E00
1100
1300
0E00
0000
0E00
3F80
71C0
60C0
00C0
0FC0
3FC0
60C0
E0C0
61C0
73D0
3EF0
ENDCHAR
STARTCHAR 00E6
ENCODING 230
SWIDTH 585 0
DWIDTH 13 0
BBX 13 12 0 0
BITMAP
1840
7DF0
6718
4318
0318
1FF8
7FF8
6300
C318
C718
6DB0
79F0
ENDCHAR
STARTCHAR 00E7
ENCODING 231
SWIDTH 585 0
DWIDTH 13 0
BBX 10 17 1 -5
BITMAP
0600
3F80
71C0
60C0
60C0
E000
E000
E000
60C0
60C0
39C0
1F00
0000
0700
0100
1F00
0C00
ENDCHAR
STARTCHAR 00E8
ENCODING 232
SWIDTH 585 0
DWIDTH 13 0
BBX 11 17 1 0
BITMAP
1800
0C00
0C00
0600
0000
0600
3F80
71C0
60C0
6060
FFE0
FFE0
E000
6060
60C0
39C0
1F80
ENDCHAR
STARTCHAR 00E9
ENCODING 233
SWIDTH 585 0
DWIDTH 13 0
BBX 11 17 1 0
BITMAP
0300
0300
0600
0400
0000
0600
3F80
71C0
60C0
6060
FFE0
FFE0
E000
6060
60C0
39C0
1F80
ENDCHAR
STARTCHAR 00EA
ENCODING 234
SWIDTH 585 0
DWIDTH 13 0
BBX 11 17 1 0
BITMAP
0600
0F00
1980
31C0
0000
0600
3F80
71C0
60C0
6060
FFE0
FFE0
E000
6060
60C0
39C0
1F80
ENDCHAR
STARTCHAR 00EB
ENCODING 235
SWIDTH 585 0
DWIDTH 13 0
BBX 11 16 1 0
BITMAP
3180
3180
0000
0000
0600
3F80
71C0
60C0
6060
FFE0
FFE0
E000
6060
60C0
39C0
1F80
ENDCHAR
STARTCHAR 00EC
ENCODING 236
SWIDTH 585 0
DWIDTH 13 0
BBX 10 17 2 0
BITMAP
3800
1800
0C00
0C00
0000
0000
FC00
0C00
0C00
0C00
0C00
0C00
0C00
0C00
0C00
FFC0
FFC0
ENDCHAR
STARTCHAR 00ED
ENCODING 237
SWIDTH 585 0
DWIDTH 13 0
BBX 10 17 2 0
BITMAP
0300
0600
0400
0C00
0000
0000
FC00
0C00
0C00
0C00
0C00
0C00
0C00
0C00
0C00
FFC0
FFC0
ENDCHAR
STARTCHAR 00EE
ENCODING 238
SWIDTH 585 0
DWIDTH 13 0
BBX 10 17 2 0
BITMAP
0C00
1E00
3300
7180
0000
0000
FC00
0C00
0C00
0C00
0C00
0C00
0C00
0C00
0C00
FFC0
FFC0
ENDCHAR
STARTCHAR 00EF
ENCODING 239
SWIDTH 585 0
DWIDTH 13 0
BBX 10 16 2 0
BITMAP
3180
3180
0000
0000
0000
FC00
0C00
0C00
0C00
0C00
0C00
0C00
0C00
0C00
FFC0
FFC0
ENDCHAR
STARTCHAR 00F0
ENCODING 240
SWIDTH 585 0
DWIDTH 13 0
BBX 11 16 1 0
BITMAP
3300
1E00
3E00
0300
0D80
3FC0
71C0
60E0
6060
E060
E060
E060
60E0
60C0
39C0
1F80
ENDCHAR
STARTCHAR 00F1
ENCODING 241
SWIDTH 585 0
DWIDTH 13 0
BBX 10 16 2 0
BITMAP
7980
4F00
4200
0000
0400
FF00
E380
E180
C1C0
C1C0
C1C0
C1C0
C1C0
C1C0
C1C0
C1C0
ENDCHAR
STARTCHAR 00F2
ENCODING 242
SWIDTH 585 0
DWIDTH 13 0
BBX 11 17 1 0
BITMAP
1800
0C00
0C00
0600
0000
0600
3F80
71C0
60C0
60E0
E060
E060
E060
60E0
60C0
39C0
1F00
ENDCHAR
STARTCHAR 00F3
ENCODING 243
SWIDTH 585 0
DWIDTH 13 0
BBX 11 17 1 0
BITMAP
0300
0300
0600
0C00
0000
0600
3F80
71C0
60C0
60E0
E060
E060
E060
60E0
60C0
39C0
1F00
ENDCHAR
STARTCHAR 00F4
ENCODING 244
SWIDTH 585 0
DWIDTH 13 0
BBX 11 17 1 0
BITMAP
0E00
0F00
1B00
3180
0000
0600
3F80
71C0
60C0
60E0
E060
E060
E060
60E0
60C0
39C0
1F00
ENDCHAR
STARTCHAR 00F5
ENCODING 245
SWIDTH 585 0
DWIDTH 13 0
BBX 11 16 1 0
BITMAP
3CC0
2780
2100
0000
0600
3F80
71C0
60C0
60E0
E060
E060
E060
60E0
60C0
39C0
1F00
ENDCHAR
STARTCHAR 00F6
ENCODING 246
SWIDTH 585 0
DWIDTH 13 0
BBX 11 16 1 0
BITMAP
3180
3180
0000
0000
0600
3F80
71C0
60C0
60E0
E060
E060
E060
60E0
60C0
39C0
1F00
ENDCHAR
STARTCHAR 00F7
ENCODING 247
SWIDTH 585 0
DWIDTH 13 0
BBX 11 9 1 1
BITMAP
0600
0600
0000
FFE0
FFE0
0000
0000
0600
0600
ENDCHAR
STARTCHAR 00F8
ENCODING 248
SWIDTH 585 0
DWIDTH 13 0
BBX 11 14 1 -1
BITMAP
0060
0640
3F80
71C0
61C0
62E0
E660
E460
EC60
68E0
70C0
39C0
3F00
4000
ENDCHAR
STARTCHAR 00F9
ENCODING 249
SWIDTH 585 0
DWIDTH 13 0
BBX 11 17 2 0
BITMAP
3000
1000
1800
0C00
0000
0000
C180
C180
C180
C180
C180
C180
C180
C180
C380
FFE0
7CE0
ENDCHAR
STARTCHAR 00FA
ENCODING 250
SWIDTH 585 0
DWIDTH 13 0
BBX 11 17 2 0
BITMAP
0600
0C00
0C00
1800
0000
0000
C180
C180
C180
C180
C180
C180
C180
C180
C380
FFE0
7CE0
ENDCHAR
STARTCHAR 00FB
ENCODING 251
SWIDTH 585 0
DWIDTH 13 0
BBX 11 17 2 0
BITMAP
1C00
1400
3600
6300
0000
0000
C180
C180
C180
C180
C180
C180
C180
C180
C380
FFE0
7CE0
ENDCHAR
STARTCHAR 00FC
ENCODING 252
SWIDTH 585 0
DWIDTH 13 0
BBX 11 16 2 0
BITMAP
6300
6300
0000
0000
0000
C180
C180
C180
C180
C180
C180
C180
C180
C380
FFE0
7CE0
ENDCHAR
STARTCHAR 00FD
ENCODING 253
SWIDTH 585 0
DWIDTH 13 0
BBX 11 21 1 -4
BITMAP
0380
0300
0600
0600
0000
0000
E060
60C0
70C0
30C0
3180
1980
1B00
1F00
0F00
0E00
0E00
0C00
0C00
7800
7800
ENDCHAR
STARTCHAR 00FE
ENCODING 254
SWIDTH 585 0
DWIDTH 13 0
BBX 10 20 2 -4
BITMAP
C000
C000
C000
C000
C400
DF00
E180
E1C0
C0C0
C0C0
C0C0
C0C0
C0C0
E1C0
F380
DF00
C000
C000
C000
C000
ENDCHAR
STARTCHAR 00FF
ENCODING 255
SWIDTH 585 0
DWIDTH 13 0
BBX 11 20 1 -4
BITMAP
3180
3180
0000
0000
0000
E060
60C0
70C0
30C0
3180
1980
1B00
1F00
0F00
0E00
0E00
0C00
0C00
7800
7800
ENDCHAR
STARTCHAR 0100
ENCODING 256
SWIDTH 585 0
DWIDTH 13 0
BBX 13 19 0 0
BITMAP
1FC0
1FC0
0000
0000
0700
0780
0D80
0D80
0DC0
18C0
18C0
18E0
3860
3060
3FF0
7FF0
6030
6038
E038
ENDCHAR
STARTCHAR 0101
ENCODING 257
SWIDTH 585 0
DWIDTH 13 0
BBX 12 15 1 0
BITMAP
3F80
0000
0000
0E00
3F80
71C0
60C0
00C0
0FC0
3FC0
60C0
E0C0
61C0
73D0
3EF0
ENDCHAR
STARTCHAR 0102
ENCODING 258
SWIDTH 585 0
DWIDTH 13 0
BBX 13 20 0 0
BITMAP
1840
18C0
0F80
0000
0000
0700
0780
0D80
0D80
0DC0
18C0
18C0
18E0
3860
3060
3FF0
7FF0
6030
6038
E038
ENDCHAR
STARTCHAR 0103
ENCODING 259
SWIDTH 585 0
DWIDTH 13 0
BBX 12 16 1 0
BITMAP
2180
3B80
0E00
0000
0E00
3F80
71C0
60C0
00C0
0FC0
3FC0
60C0
E0C0
61C0
73D0
3EF0
ENDCHAR
STARTCHAR 0104
ENCODING 260
SWIDTH 585 0
DWIDTH 13 0
BBX 14 18 0 -3
BITMAP
0700
0780
0D80
0D80
0DC0
18C0
18C0
18E0
3860
3060
3FF0
7FF0
6030
6038
E038
0030
0020
003C
ENDCHAR
STARTCHAR 0105
ENCODING 261
SWIDTH 585 0
DWIDTH 13 0
BBX 13 15 1 -3
BITMAP
0E00
3F80
71C0
60C0
00C0
0FC0
3FC0
60C0
E0C0
61C0
73D0
3EF0
0040
00C0
0078
ENDCHAR
STARTCHAR 0106
ENCODING 262
SWIDTH 585 0
DWIDTH 13 0
BBX 11 20 1 0
BITMAP
0180
0300
0600
0000
0000
3F80
79C0
60E0
E060
C060
C060
C000
C000
C000
C060
C060
E060
60E0
7FC0
3F80
ENDCHAR
STARTCHAR 0107
ENCODING 263
SWIDTH 585 0
DWIDTH 13 0
BBX 10 17 1 0
BITMAP
0300
0300
0600
0C00
0000
0600
3F80
71C0
60C0
60C0
E000
E000
E000
60C0
60C0
39C0
1F00
ENDCHAR
STARTCHAR 0108
ENCODING 264
SWIDTH 585 0
DWIDTH 13 0
BBX 11 20 1 0
BITMAP
0E00
1B00
3180
0000
0000
3F80
79C0
60E0
E060
C060
C060
C000
C000
C000
C060
C060
E060
60E0
7FC0
3F80
ENDCHAR
STARTCHAR 0109
ENCODING 265
SWIDTH 585 0
DWIDTH 13 0
BBX 10 17 1 0
BITMAP
0E00
0F00
1B00
3180
0000
0600
3F80
71C0
60C0
60C0
E000
E000
E000
60C0
60C0
39C0
1F00
ENDCHAR
STARTCHAR 010A
ENCODING 266
SWIDTH 585 0
DWIDTH 13 0
BBX 11 19 1 0
BITMAP
0600
0600
0000
0000
3F80
79C0
60E0
E060
C060
C060
C000
C000
C000
C060
C060
E060
60E0
7FC0
3F80
ENDCHAR
STARTCHAR 010B
ENCODING 267
SWIDTH 585 0
DWIDTH 13 0
BBX 10 16 1 0
BITMAP
0600
0600
0000
0000
0600
3F80
71C0
60C0
60C0
E000
E000
E000
60C0
60C0
39C0
1F00
ENDCHAR
STARTCHAR 010C
ENCODING 268
SWIDTH 585 0
DWIDTH 13 0
BBX 11 20 1 0
BITMAP
3180
1B00
0E00
0000
0000
3F80
79C0
60E0
E060
C060
C060
C000
C000
C000
C060
C060
E060
60E0
7FC0
3F80
ENDCHAR
STARTCHAR 010D
ENCODING 269
SWIDTH 585 0
DWIDTH 13 0
BBX 10 17 1 0
BITMAP
3180
1900
0B00
0E00
0000
0600
3F80
71C0
60C0
60C0
E000
E000
E000
60C0
60C0
39C0
1F00
ENDCHAR
STARTCHAR 010E
ENCODING 270
SWIDTH 585 0
DWIDTH 13 0
BBX 11 20 2 0
BITMAP
6300
3600
1C00
0000
0000
FF00
FFC0
C1C0
C0E0
C0E0
C060
C060
C060
C060
C060
C0E0
C0E0
C1C0
FF80
FF00
ENDCHAR
STARTCHAR 010F
ENCODING 271
SWIDTH 585 0
DWIDTH 13 0
BBX 14 16 1 0
BITMAP
00C0
00CC
00CC
00C4
0CCC
3FC8
71C0
60C0
E0C0
C0C0
C0C0
E0C0
E0C0
61C0
73C0
3EC0
ENDCHAR
STARTCHAR 0110
ENCODING 272
SWIDTH 585 0
DWIDTH 13 0
BBX 13 15 0 0
BITMAP
3FC0
3FF0
3070
3038
3038
3018
3018
FF18
3018
3018
3038
3038
3070
3FE0
3FC0
ENDCHAR
STARTCHAR 0111
ENCODING 273
SWIDTH 585 0
DWIDTH 13 0
BBX 12 16 1 0
BITMAP
00C0
00C0
0FF0
00C0
0CC0
3FC0
71C0
60C0
E0C0
C0C0
C0C0
E0C0
E0C0
61C0
73C0
3EC0
ENDCHAR
STARTCHAR 0112
ENCODING 274
SWIDTH 585 0
DWIDTH 13 0
BBX 10 19 2 0
BITMAP
7F00
7F00
0000
0000
FFC0
FFC0
C000
C000
C000
C000
FF80
FF80
C000
C000
C000
C000
C000
FFC0
FFC0
ENDCHAR
STARTCHAR 0113
ENCODING 275
SWIDTH 585 0
DWIDTH 13 0
BBX 11 15 1 0
BITMAP
3F80
0000
0000
0600
3F80
71C0
60C0
6060
FFE0
FFE0
E000
6060
60C0
39C0
1F80
ENDCHAR
STARTCHAR 0114
ENCODING 276
SWIDTH 585 0
DWIDTH 13 0
BBX 10 20 2 0
BITMAP
6180
3300
1E00
0000
0000
FFC0
FFC0
C000
C000
C000
C000
FF80
FF80
C000
C000
C000
C000
C000
FFC0
FFC0
ENDCHAR
STARTCHAR 0115
ENCODING 277
SWIDTH 585 0
DWIDTH 13 0
BBX 11 16 1 0
BITMAP
30C0
1B80
0F00
0000
0600
3F80
71C0
60C0
6060
FFE0
FFE0
E000
6060
60C0
39C0
1F80
ENDCHAR
STARTCHAR 0116
ENCODING 278
SWIDTH 585 0
DWIDTH 13 0
BBX 10 19 2 0
BITMAP
0C00
0C00
0000
0000
FFC0
FFC0
C000
C000
C000
C000
FF80
FF80
C000
C000
C000
C000
C000
FFC0
FFC0
ENDCHAR
STARTCHAR 0117
ENCODING 279
SWIDTH 585 0
DWIDTH 13 0
BBX 11 16 1 0
BITMAP
0600
0600
0000
0000
0600
3F80
71C0
60C0
6060
FFE0
FFE0
E000
6060
60C0
39C0
1F80
ENDCHAR
STARTCHAR 0118
ENCODING 280
SWIDTH 585 0
DWIDTH 13 0
BBX 11 18 2 -3
BITMAP
FFC0
FFC0
C000
C000
C000
C000
FF80
FF80
C000
C000
C000
C000
C000
FFC0
FFC0
0100
0300
01E0
ENDCHAR
STARTCHAR 0119
ENCODING 281
SWIDTH 585 0
DWIDTH 13 0
BBX 11 15 1 -3
BITMAP
0600
3F80
71C0
60C0
6060
FFE0
FFE0
E000
6060
60C0
39C0
1F80
0600
0400
0780
ENDCHAR
STARTCHAR 011A
ENCODING 282
SWIDTH 585 0
DWIDTH 13 0
BBX 10 20 2 0
BITMAP
6180
3300
1E00
0000
0000
FFC0
FFC0
C000
C000
C000
C000
FF80
FF80
C000
C000
C000
C000
C000
FFC0
FFC0
ENDCHAR
STARTCHAR 011B
ENCODING 283
SWIDTH 585 0
DWIDTH 13 0
BBX 11 17 1 0
BITMAP
31C0
1980
0F00
0E00
0000
0600
3F80
71C0
60C0
6060
FFE0
FFE0
E000
6060
60C0
39C0
1F80
ENDCHAR
STARTCHAR 011C
ENCODING 284
SWIDTH 585 0
DWIDTH 13 0
BBX 11 20 1 0
BITMAP
0E00
1B00
3980
0000
0000
3F80
79C0
E0E0
E060
C060
C000
C000
C7E0
C7E0
C060
C060
E060
60E0
7FA0
3F20
ENDCHAR
STARTCHAR 011D
ENCODING 285
SWIDTH 585 0
DWIDTH 13 0
BBX 12 20 1 -4
BITMAP
0E00
0F00
3980
0030
0670
3FC0
70C0
60C0
60C0
70C0
3F80
7E00
6000
6000
7FC0
7FE0
C070
C030
E060
7FC0
ENDCHAR
STARTCHAR 011E
ENCODING 286
SWIDTH 585 0
DWIDTH 13 0
BBX 11 20 1 0
BITMAP
3080
3180
1F00
0000
0000
3F80
79C0
E0E0
E060
C060
C000
C000
C7E0
C7E0
C060
C060
E060
60E0
7FA0
3F20
ENDCHAR
STARTCHAR 011F
ENCODING 287
SWIDTH 585 0
DWIDTH 13 0
BBX 12 20 1 -4
BITMAP
3080
3B80
0E00
0030
0660
3F80
70C0
60C0
60C0
70C0
3F80
7E00
6000
6000
7FC0
7FE0
C070
C030
E060
7FC0
ENDCHAR
STARTCHAR 0120
ENCODING 288
SWIDTH 585 0
DWIDTH 13 0
BBX 11 19 1 0
BITMAP
0600
0600
0000
0000
3F80
79C0
E0E0
E060
C060
C000
C000
C7E0
C7E0
C060
C060
E060
60E0
7FA0
3F20
ENDCHAR
STARTCHAR 0121
ENCODING 289
SWIDTH 585 0
DWIDTH 13 0
BBX 12 20 1 -4
BITMAP
0600
0600
0000
0030
0660
3F80
70C0
60C0
60C0
70C0
3F80
7E00
6000
6000
7FC0
7FE0
C070
C030
E060
7FC0
ENDCHAR
STARTCHAR 0122
ENCODING 290
SWIDTH 585 0
DWIDTH 13 0
BBX 11 22 1 -7
BITMAP
3F80
79C0
E0E0
E060
C060
C000
C000
C7E0
C7E0
C060
C060
E060
60E0
7FA0
3F20
0000
0000
0600
0600
0200
0400
0C00
ENDCHAR
STARTCHAR 0123
ENCODING 291
SWIDTH 585 0
DWIDTH 13 0
BBX 12 23 1 -4
BITMAP
0600
0400
0400
0600
0600
0600
0030
0660
3F80
70C0
60C0
60C0
70C0
3F80
7E00
6000
6000
7FC0
7FE0
C070
C030
E060
7FC0
ENDCHAR
STARTCHAR 0124
ENCODING 292
SWIDTH 585 0
DWIDTH 13 0
BBX 10 20 2 0
BITMAP
1C00
3600
6300
0000
0000
C1C0
C1C0
C1C0
C1C0
C1C0
C1C0
FFC0
FFC0
C1C0
C1C0
C1C0
C1C0
C1C0
C1C0
C1C0
ENDCHAR
STARTCHAR 0125
ENCODING 293
SWIDTH 585 0
DWIDTH 13 0
BBX 13 20 -1 0
BITMAP
1800
3C00
E700
0000
1800
1800
1800
1800
1880
1BE0
1C70
1830
1838
1838
1838
1838
1838
1838
1838
1838
ENDCHAR
STARTCHAR 0126
ENCODING 294
SWIDTH 585 0
DWIDTH 13 0
BBX 13 15 0 0
BITMAP
3070
3070
FFF8
FFF8
3070
3070
3FF0
3FF0
3070
3070
3070
3070
3070
3070
3070
ENDCHAR
STARTCHAR 0127
ENCODING 295
SWIDTH 585 0
DWIDTH 13 0
BBX 12 16 0 0
BITMAP
3000
3000
FF00
3000
3100
37C0
38E0
3060
3070
3070
3070
3070
3070
3070
3070
3070
ENDCHAR
STARTCHAR 0128
ENCODING 296
SWIDTH 585 0
DWIDTH 13 0
BBX 9 20 2 0
BITMAP
1180
7F00
4F00
0000
0000
FF80
FF80
1C00
1C00
1C00
1C00
1C00
1C00
1C00
1C00
1C00
1C00
1C00
FF80
FF80
ENDCHAR
STARTCHAR 0129
ENCODING 297
SWIDTH 585 0
DWIDTH 13 0
BBX 10 16 2 0
BITMAP
3C80
6F80
4200
0000
0000
FC00
0C00
0C00
0C00
0C00
0C00
0C00
0C00
0C00
FFC0
FFC0
ENDCHAR
STARTCHAR 012A
ENCODING 298
SWIDTH 585 0
DWIDTH 13 0
BBX 9 19 2 0
BITMAP
7F00
7F00
0000
0000
FF80
FF80
1C00
1C00
1C00
1C00
1C00
1C00
1C00
1C00
1C00
1C00
1C00
FF80
FF80
ENDCHAR
STARTCHAR 012B
ENCODING 299
SWIDTH 585 0
DWIDTH 13 0
BBX 10 15 2 0
BITMAP
3F80
0000
0000
0000
FC00
0C00
0C00
0C00
0C00
0C00
0C00
0C00
0C00
FFC0
FFC0
ENDCHAR
STARTCHAR 012C
ENCODING 300
SWIDTH 585 0
DWIDTH 13 0
BBX 9 20 2 0
BITMAP
6100
6300
3E00
0000
0000
FF80
FF80
1C00
1C00
1C00
1C00
1C00
1C00
1C00
1C00
1C00
1C00
1C00
FF80
FF80
ENDCHAR
STARTCHAR 012D
ENCODING 301
SWIDTH 585 0
DWIDTH 13 0
BBX 10 16 2 0
BITMAP
6180
3B00
1E00
0000
0000
FC00
0C00
0C00
0C00
0C00
0C00
0C00
0C00
0C00
FFC0
FFC0
ENDCHAR
STARTCHAR 012E
ENCODING 302
SWIDTH 585 0
DWIDTH 13 0
BBX 9 18 2 -3
BITMAP
FF80
FF80
1C00
1C00
1C00
1C00
1C00
1C00
1C00
1C00
1C00
1C00
1C00
FF80
FF80
0600
0400
0780
ENDCHAR
STARTCHAR 012F
ENCODING 303
SWIDTH 585 0
DWIDTH 13 0
BBX 10 19 2 -3
BITMAP
0C00
0C00
0000
0000
0000
FC00
0C00
0C00
0C00
0C00
0C00
0C00
0C00
0C00
FFC0
FFC0
0C00
0800
0F00
ENDCHAR
STARTCHAR 0130
ENCODING 304
SWIDTH 585 0
DWIDTH 13 0
BBX 9 19 2 0
BITMAP
0C00
0C00
0000
0000
FF80
FF80
1C00
1C00
1C00
1C00
1C00
1C00
1C00
1C00
1C00
1C00
1C00
FF80
FF80
ENDCHAR
STARTCHAR 0131
ENCODING 305
SWIDTH 585 0
DWIDTH 13 0
BBX 10 11 2 0
BITMAP
FC00
0C00
0C00
0C00
0C00
0C00
0C00
0C00
0C00
FFC0
FFC0
ENDCHAR
STARTCHAR 0132
ENCODING 306
SWIDTH 585 0
DWIDTH 13 0
BBX 10 15 2 0
BITMAP
C1C0
C1C0
C1C0
C1C0
C1C0
C1C0
C1C0
C1C0
C1C0
01C0
C1C0
C1C0
C180
FF80
3F00
ENDCHAR
STARTCHAR 0133
ENCODING 307
SWIDTH 585 0
DWIDTH 13 0
BBX 10 20 2 -4
BITMAP
C1C0
C1C0
0000
0000
0000
C780
C180
C180
C180
C180
C180
C180
C180
C180
C180
C180
0180
0180
1F80
1F00
ENDCHAR
STARTCHAR 0134
ENCODING 308
SWIDTH 585 0
DWIDTH 13 0
BBX 12 20 2 0
BITMAP
0180
03C0
0670
0800
0000
0180
0180
0180
0180
0180
0180
0180
0180
0180
0180
C180
C180
E180
7F80
3F00
ENDCHAR
STARTCHAR 0135
ENCODING 309
SWIDTH 585 0
DWIDTH 13 0
BBX 9 21 2 -4
BITMAP
0C00
1E00
1300
7180
0000
0000
FC00
0C00
0C00
0C00
0C00
0C00
0C00
0C00
0C00
0C00
0C00
0C00
0C00
FC00
F800
ENDCHAR
STARTCHAR 0136
ENCODING 310
SWIDTH 585 0
DWIDTH 13 0
BBX 11 22 2 -7
BITMAP
C0E0
C1C0
C380
C700
C600
CE00
DC00
FC00
FE00
E600
C700
C380
C180
C1C0
C0E0
0000
0000
0C00
0C00
0C00
0800
1800
ENDCHAR
STARTCHAR 0137
ENCODING 311
SWIDTH 585 0
DWIDTH 13 0
BBX 10 23 2 -7
BITMAP
C000
C000
C000
C000
C040
C380
C300
C600
CE00
DC00
FC00
FE00
E600
C700
C380
C1C0
0000
0000
1800
1800
0800
0800
1800
ENDCHAR
STARTCHAR 0138
ENCODING 312
SWIDTH 585 0
DWIDTH 13 0
BBX 10 11 2 0
BITMAP
C3C0
C300
C600
CE00
DC00
FC00
FE00
E600
C700
C380
C1C0
ENDCHAR
STARTCHAR 0139
ENCODING 313
SWIDTH 585 0
DWIDTH 13 0
BBX 10 20 2 0
BITMAP
1800
3000
6000
0000
0000
E000
E000
E000
E000
E000
E000
E000
E000
E000
E000
E000
E000
E000
FFC0
FFC0
ENDCHAR
STARTCHAR 013A
ENCODING 314
SWIDTH 585 0
DWIDTH 13 0
BBX 10 20 2 0
BITMAP
0300
0600
0C00
0000
FC00
FC00
0C00
0C00
0C00
0C00
0C00
0C00
0C00
0C00
0C00
0C00
0C00
0C00
FFC0
FFC0
ENDCHAR
STARTCHAR 013B
ENCODING 315
SWIDTH 585 0
DWIDTH 13 0
BBX 10 22 2 -7
BITMAP
E000
E000
E000
E000
E000
E000
E000
E000
E000
E000
E000
E000
E000
FFC0
FFC0
0000
0000
0C00
0C00
0400
0400
0C00
ENDCHAR
STARTCHAR 013C
ENCODING 316
SWIDTH 585 0
DWIDTH 13 0
BBX 10 23 2 -7
BITMAP
FC00
FC00
0C00
0C00
0C00
0C00
0C00
0C00
0C00
0C00
0C00
0C00
0C00
0C00
FFC0
FFC0
0000
0000
0C00
0C00
0C00
0800
1800
ENDCHAR
STARTCHAR 013D
ENCODING 317
SWIDTH 585 0
DWIDTH 13 0
BBX 10 15 2 0
BITMAP
E180
E180
E080
E080
E100
E000
E000
E000
E000
E000
E000
E000
E000
FFC0
FFC0
ENDCHAR
STARTCHAR 013E
ENCODING 318
SWIDTH 585 0
DWIDTH 13 0
BBX 10 16 2 0
BITMAP
FC00
FDC0
0DC0
0C80
0C80
0D80
0C00
0C00
0C00
0C00
0C00
0C00
0C00
0C00
FFC0
FFC0
ENDCHAR
STARTCHAR 013F
ENCODING 319
SWIDTH 585 0
DWIDTH 13 0
BBX 10 15 2 0
BITMAP
E000
E000
E000
E000
E000
E380
E380
E380
E000
E000
E000
E000
E000
FFC0
FFC0
ENDCHAR
STARTCHAR 0140
ENCODING 320
SWIDTH 585 0
DWIDTH 13 0
BBX 13 16 2 0
BITMAP
FC00
FC00
0C00
0C00
0C00
0C00
0C38
0C38
0C38
0C00
0C00
0C00
0C00
0C00
FFC0
FFC0
ENDCHAR
STARTCHAR 0141
ENCODING 321
SWIDTH 585 0
DWIDTH 13 0
BBX 11 15 1 0
BITMAP
7000
7000
7000
7000
7000
7600
7C00
7000
F000
F000
7000
7000
7000
7FE0
7FE0
ENDCHAR
STARTCHAR 0142
ENCODING 322
SWIDTH 585 0
DWIDTH 13 0
BBX 10 16 2 0
BITMAP
FC00
FC00
0C00
0C00
0C00
0C80
0F80
0E00
3C00
EC00
8C00
0C00
0C00
0C00
FFC0
FFC0
ENDCHAR
STARTCHAR 0143
ENCODING 323
SWIDTH 585 0
DWIDTH 13 0
BBX 10 20 2 0
BITMAP
0300
0600
0C00
0000
0000
C0C0
E0C0
E0C0
F0C0
F0C0
D8C0
D8C0
CCC0
CCC0
C6C0
C6C0
C3C0
C3C0
C1C0
C1C0
ENDCHAR
STARTCHAR 0144
ENCODING 324
SWIDTH 585 0
DWIDTH 13 0
BBX 10 17 2 0
BITMAP
0600
0600
0C00
0800
0000
0400
FF00
E380
E180
C1C0
C1C0
C1C0
C1C0
C1C0
C1C0
C1C0
C1C0
ENDCHAR
STARTCHAR 0145
ENCODING 325
SWIDTH 585 0
DWIDTH 13 0
BBX 10 22 2 -7
BITMAP
C0C0
E0C0
E0C0
F0C0
F0C0
D8C0
D8C0
CCC0
CCC0
C6C0
C6C0
C3C0
C3C0
C1C0
C1C0
0000
0000
0C00
0C00
0C00
0800
1800
ENDCHAR
STARTCHAR 0146
ENCODING 326
SWIDTH 585 0
DWIDTH 13 0
BBX 10 19 2 -7
BITMAP
0400
FF00
E380
E180
C1C0
C1C0
C1C0
C1C0
C1C0
C1C0
C1C0
C1C0
0000
0000
0C00
0C00
0400
0C00
0800
ENDCHAR
STARTCHAR 0147
ENCODING 327
SWIDTH 585 0
DWIDTH 13 0
BBX 10 20 2 0
BITMAP
6300
3600
1C00
0000
0000
C0C0
E0C0
E0C0
F0C0
F0C0
D8C0
D8C0
CCC0
CCC0
C6C0
C6C0
C3C0
C3C0
C1C0
C1C0
ENDCHAR
STARTCHAR 0148
ENCODING 328
SWIDTH 585 0
DWIDTH 13 0
BBX 10 17 2 0
BITMAP
6380
3300
1E00
1C00
0000
0400
FF00
E380
E180
C1C0
C1C0
C1C0
C1C0
C1C0
C1C0
C1C0
C1C0
ENDCHAR
STARTCHAR 0149
ENCODING 329
SWIDTH 585 0
DWIDTH 13 0
BBX 12 17 0 0
BITMAP
C000
C000
4000
4000
C000
0100
3FC0
38E0
3860
3070
3070
3070
3070
3070
3070
3070
3070
ENDCHAR
STARTCHAR 014A
ENCODING 330
SWIDTH 585 0
DWIDTH 13 0
BBX 10 19 2 -4
BITMAP
C0C0
E0C0
E0C0
F0C0
F0C0
D8C0
D8C0
CCC0
CCC0
C6C0
C6C0
C3C0
C3C0
C1C0
C1C0
01C0
01C0
05C0
0780
ENDCHAR
STARTCHAR 014B
ENCODING 331
SWIDTH 585 0
DWIDTH 13 0
BBX 10 16 2 -4
BITMAP
0400
FF00
E380
E180
C1C0
C1C0
C1C0
C1C0
C1C0
C1C0
C1C0
C1C0
01C0
01C0
0780
0780
ENDCHAR
STARTCHAR 014C
ENCODING 332
SWIDTH 585 0
DWIDTH 13 0
BBX 12 19 1 0
BITMAP
3F80
3F80
0000
0000
3F80
79C0
60E0
E060
C060
C060
C070
C070
C070
C060
C060
E060
60E0
7FC0
3F80
ENDCHAR
STARTCHAR 014D
ENCODING 333
SWIDTH 585 0
DWIDTH 13 0
BBX 11 15 1 0
BITMAP
3F80
0000
0000
0600
3F80
71C0
60C0
60E0
E060
E060
E060
60E0
60C0
39C0
1F00
ENDCHAR
STARTCHAR 014E
ENCODING 334
SWIDTH 585 0
DWIDTH 13 0
BBX 12 20 1 0
BITMAP
3080
3180
1F00
0000
0000
3F80
79C0
60E0
E060
C060
C060
C070
C070
C070
C060
C060
E060
60E0
7FC0
3F80
ENDCHAR
STARTCHAR 014F
ENCODING 335
SWIDTH 585 0
DWIDTH 13 0
BBX 11 16 1 0
BITMAP
3080
3B80
0E00
0000
0600
3F80
71C0
60C0
60E0
E060
E060
E060
60E0
60C0
39C0
1F00
ENDCHAR
STARTCHAR 0150
ENCODING 336
SWIDTH 585 0
DWIDTH 13 0
BBX 12 20 1 0
BITMAP
06C0
0D80
1980
0200
0000
3F80
79C0
60E0
E060
C060
C060
C070
C070
C070
C060
C060
E060
60E0
7FC0
3F80
ENDCHAR
STARTCHAR 0151
ENCODING 337
SWIDTH 585 0
DWIDTH 13 0
BBX 11 16 1 0
BITMAP
0EE0
0980
1B00
0000
0600
3F80
71C0
60C0
60E0
E060
E060
E060
60E0
60C0
39C0
1F00
ENDCHAR
STARTCHAR 0152
ENCODING 338
SWIDTH 585 0
DWIDTH 13 0
BBX 12 15 1 0
BITMAP
3FF0
7FF0
E300
C300
C300
C300
C3E0
C3E0
C300
C300
C300
C300
E300
7FF0
3FF0
ENDCHAR
STARTCHAR 0153
ENCODING 339
SWIDTH 585 0
DWIDTH 13 0
BBX 13 12 0 0
BITMAP
1840
7DF0
6718
C318
C318
C3F8
C3F8
C300
C318
4718
67B0
3CF0
ENDCHAR
STARTCHAR 0154
ENCODING 340
SWIDTH 585 0
DWIDTH 13 0
BBX 11 20 2 0
BITMAP
0300
0600
0C00
0000
0000
FF80
FFC0
C0C0
C0E0
C0C0
C0C0
C1C0
FF00
FF80
C1C0
C0C0
C0C0
C0C0
C0C0
C060
ENDCHAR
STARTCHAR 0155
ENCODING 341
SWIDTH 585 0
DWIDTH 13 0
BBX 11 17 1 0
BITMAP
0380
0300
0600
0600
0000
0180
FFE0
1C60
1860
1860
1800
1800
1800
1800
1800
FFC0
FFC0
ENDCHAR
STARTCHAR 0156
ENCODING 342
SWIDTH 585 0
DWIDTH 13 0
BBX 11 22 2 -7
BITMAP
FF80
FFC0
C0C0
C0E0
C0C0
C0C0
C1C0
FF00
FF80
C1C0
C0C0
C0C0
C0C0
C0C0
C060
0000
0000
0C00
0C00
0400
0400
0800
ENDCHAR
STARTCHAR 0157
ENCODING 343
SWIDTH 585 0
DWIDTH 13 0
BBX 11 19 1 -7
BITMAP
0180
FFE0
1C60
1860
1860
1800
1800
1800
1800
1800
FFC0
FFC0
0000
0000
0C00
0C00
0400
0400
0C00
ENDCHAR
STARTCHAR 0158
ENCODING 344
SWIDTH 585 0
DWIDTH 13 0
BBX 11 20 2 0
BITMAP
6380
3600
1C00
0000
0000
FF80
FFC0
C0C0
C0E0
C0C0
C0C0
C1C0
FF00
FF80
C1C0
C0C0
C0C0
C0C0
C0C0
C060
ENDCHAR
STARTCHAR 0159
ENCODING 345
SWIDTH 585 0
DWIDTH 13 0
BBX 11 17 1 0
BITMAP
30C0
1980
0F00
0600
0000
0180
FFE0
1C60
1860
1860
1800
1800
1800
1800
1800
FFC0
FFC0
ENDCHAR
STARTCHAR 015A
ENCODING 346
SWIDTH 585 0
DWIDTH 13 0
BBX 11 20 1 0
BITMAP
0180
0300
0600
0000
0000
3F80
71C0
E060
E060
E000
7000
7F00
1FC0
01E0
0060
C060
C060
E0E0
7FE0
3F80
ENDCHAR
STARTCHAR 015B
ENCODING 347
SWIDTH 585 0
DWIDTH 13 0
BBX 10 17 2 0
BITMAP
0600
0600
0C00
1800
0000
0C00
7F00
C180
C180
E000
FC00
3F80
0380
C1C0
C1C0
E380
7F00
ENDCHAR
STARTCHAR 015C
ENCODING 348
SWIDTH 585 0
DWIDTH 13 0
BBX 11 20 1 0
BITMAP
0E00
1B00
3180
0000
0000
3F80
71C0
E060
E060
E000
7000
7F00
1FC0
01E0
0060
C060
C060
E0E0
7FE0
3F80
ENDCHAR
STARTCHAR 015D
ENCODING 349
SWIDTH 585 0
DWIDTH 13 0
BBX 10 17 2 0
BITMAP
1C00
1E00
3600
6300
0000
0C00
7F00
C180
C180
E000
FC00
3F80
0380
C1C0
C1C0
E380
7F00
ENDCHAR
STARTCHAR 015E
ENCODING 350
SWIDTH 585 0
DWIDTH 13 0
BBX 11 20 1 -5
BITMAP
3F80
71C0
E060
E060
E000
7000
7F00
1FC0
01E0
0060
C060
C060
E0E0
7FE0
3F80
0000
0700
0100
1F00
0C00
ENDCHAR
STARTCHAR 015F
ENCODING 351
SWIDTH 585 0
DWIDTH 13 0
BBX 10 17 2 -5
BITMAP
0C00
7F00
C180
C180
E000
FC00
3F80
0380
C1C0
C1C0
E380
7F00
0000
0E00
0200
3E00
1800
ENDCHAR
STARTCHAR 0160
ENCODING 352
SWIDTH 585 0
DWIDTH 13 0
BBX 11 20 1 0
BITMAP
3180
1B00
0E00
0000
0000
3F80
71C0
E060
E060
E000
7000
7F00
1FC0
01E0
0060
C060
C060
E0E0
7FE0
3F80
ENDCHAR
STARTCHAR 0161
ENCODING 353
SWIDTH 585 0
DWIDTH 13 0
BBX 10 17 2 0
BITMAP
6300
3200
1600
1C00
0000
0C00
7F00
C180
C180
E000
FC00
3F80
0380
C1C0
C1C0
E380
7F00
ENDCHAR
STARTCHAR 0162
ENCODING 354
SWIDTH 585 0
DWIDTH 13 0
BBX 12 20 1 -5
BITMAP
FFF0
FFF0
0600
0600
0600
0600
0600
0600
0600
0600
0600
0600
0600
0600
0600
0000
0700
0100
1F00
0C00
ENDCHAR
STARTCHAR 0163
ENCODING 355
SWIDTH 585 0
DWIDTH 13 0
BBX 11 20 1 -5
BITMAP
0C00
0C00
0C00
1C00
FFE0
1C00
1C00
1C00
1C00
1C00
1C00
1C00
1C00
0FE0
07E0
0000
0380
0080
0780
0700
ENDCHAR
STARTCHAR 0164
ENCODING 356
SWIDTH 585 0
DWIDTH 13 0
BBX 12 20 1 0
BITMAP
3180
1B00
0E00
0000
0000
FFF0
FFF0
0600
0600
0600
0600
0600
0600
0600
0600
0600
0600
0600
0600
0600
ENDCHAR
STARTCHAR 0165
ENCODING 357
SWIDTH 585 0
DWIDTH 13 0
BBX 11 17 1 0
BITMAP
01C0
01C0
0C80
0C80
0D80
1C00
FFE0
1C00
1C00
1C00
1C00
1C00
1C00
1C00
1C00
0FE0
07E0
ENDCHAR
STARTCHAR 0166
ENCODING 358
SWIDTH 585 0
DWIDTH 13 0
BBX 12 15 1 0
BITMAP
FFF0
FFF0
0600
0600
0600
0600
0600
7FC0
0600
0600
0600
0600
0600
0600
0600
ENDCHAR
STARTCHAR 0167
ENCODING 359
SWIDTH 585 0
DWIDTH 13 0
BBX 11 15 1 0
BITMAP
0C00
0C00
0C00
1C00
FFE0
1C00
1C00
1C00
1C00
7F80
1C00
1C00
1C00
0FE0
07E0
ENDCHAR
STARTCHAR 0168
ENCODING 360
SWIDTH 585 0
DWIDTH 13 0
BBX 11 20 1 0
BITMAP
08C0
3F80
2780
0000
0000
E060
E060
E060
E060
E060
E060
E060
E060
E060
E060
E060
60E0
60C0
7FC0
1F80
ENDCHAR
STARTCHAR 0169
ENCODING 361
SWIDTH 585 0
DWIDTH 13 0
BBX 11 16 2 0
BITMAP
7900
5F00
C200
0000
0000
C180
C180
C180
C180
C180
C180
C180
C180
C380
FFE0
7CE0
ENDCHAR
STARTCHAR 016A
ENCODING 362
SWIDTH 585 0
DWIDTH 13 0
BBX 11 19 1 0
BITMAP
3F80
3F80
0000
0000
E060
E060
E060
E060
E060
E060
E060
E060
E060
E060
E060
60E0
60C0
7FC0
1F80
ENDCHAR
STARTCHAR 016B
ENCODING 363
SWIDTH 585 0
DWIDTH 13 0
BBX 11 15 2 0
BITMAP
7F00
0000
0000
0000
C180
C180
C180
C180
C180
C180
C180
C180
C380
FFE0
7CE0
ENDCHAR
STARTCHAR 016C
ENCODING 364
SWIDTH 585 0
DWIDTH 13 0
BBX 11 20 1 0
BITMAP
3080
3180
1F00
0000
0000
E060
E060
E060
E060
E060
E060
E060
E060
E060
E060
E060
60E0
60C0
7FC0
1F80
ENDCHAR
STARTCHAR 016D
ENCODING 365
SWIDTH 585 0
DWIDTH 13 0
BBX 11 16 2 0
BITMAP
4300
7700
1C00
0000
0000
C180
C180
C180
C180
C180
C180
C180
C180
C380
FFE0
7CE0
ENDCHAR
STARTCHAR 016E
ENCODING 366
SWIDTH 585 0
DWIDTH 13 0
BBX 11 21 1 0
BITMAP
0E00
1900
1100
0F00
0000
0000
E060
E060
E060
E060
E060
E060
E060
E060
E060
E060
E060
60E0
60C0
7FC0
1F80
ENDCHAR
STARTCHAR 016F
ENCODING 367
SWIDTH 585 0
DWIDTH 13 0
BBX 11 17 2 0
BITMAP
1C00
2200
3600
1C00
0000
0000
C180
C180
C180
C180
C180
C180
C180
C180
C380
FFE0
7CE0
ENDCHAR
STARTCHAR 0170
ENCODING 368
SWIDTH 585 0
DWIDTH 13 0
BBX 11 20 1 0
BITMAP
06C0
0D80
1980
0200
0000
E060
E060
E060
E060
E060
E060
E060
E060
E060
E060
E060
60E0
60C0
7FC0
1F80
ENDCHAR
STARTCHAR 0171
ENCODING 369
SWIDTH 585 0
DWIDTH 13 0
BBX 11 16 2 0
BITMAP
1F80
3300
2600
0000
0000
C180
C180
C180
C180
C180
C180
C180
C180
C380
FFE0
7CE0
ENDCHAR
STARTCHAR 0172
ENCODING 370
SWIDTH 585 0
DWIDTH 13 0
BBX 11 18 1 -3
BITMAP
E060
E060
E060
E060
E060
E060
E060
E060
E060
E060
E060
60E0
60C0
7FC0
1F80
0600
0600
0780
ENDCHAR
STARTCHAR 0173
ENCODING 371
SWIDTH 585 0
DWIDTH 13 0
BBX 12 14 2 -3
BITMAP
C180
C180
C180
C180
C180
C180
C180
C180
C380
FFE0
7CE0
00C0
0080
00F0
ENDCHAR
STARTCHAR 0174
ENCODING 372
SWIDTH 585 0
DWIDTH 13 0
BBX 13 20 0 0
BITMAP
0700
0D80
18C0
0000
0000
C318
C318
E718
6718
6798
6590
65B0
65B0
7DB0
3CB0
3CB0
38E0
38E0
38E0
38E0
ENDCHAR
STARTCHAR 0175
ENCODING 373
SWIDTH 585 0
DWIDTH 13 0
BBX 13 17 0 0
BITMAP
0300
0780
0C80
18E0
0000
0000
C318
C718
6718
6790
65B0
6DB0
2CB0
3CB0
38E0
38E0
38E0
ENDCHAR
STARTCHAR 0176
ENCODING 374
SWIDTH 585 0
DWIDTH 13 0
BBX 13 20 0 0
BITMAP
0700
0D80
18C0
0000
8000
6038
7030
3060
3860
18C0
1CC0
0F80
0780
0700
0300
0300
0300
0300
0300
0300
ENDCHAR
STARTCHAR 0177
ENCODING 375
SWIDTH 585 0
DWIDTH 13 0
BBX 11 21 1 -4
BITMAP
0600
0F00
1980
31C0
0000
0000
E060
60C0
70C0
30C0
3180
1980
1B00
1F00
0F00
0E00
0E00
0C00
0C00
7800
7800
ENDCHAR
STARTCHAR 0178
ENCODING 376
SWIDTH 585 0
DWIDTH 13 0
BBX 13 19 0 0
BITMAP
18C0
18C0
0000
8000
6038
7030
3060
3860
18C0
1CC0
0F80
0780
0700
0300
0300
0300
0300
0300
0300
ENDCHAR
STARTCHAR 0179
ENCODING 377
SWIDTH 585 0
DWIDTH 13 0
BBX 11 20 1 0
BITMAP
0180
0300
0600
0000
0000
FFE0
FFE0
01C0
0180
0380
0700
0600
0E00
0C00
1C00
3800
3000
7000
FFE0
FFE0
ENDCHAR
STARTCHAR 017A
ENCODING 378
SWIDTH 585 0
DWIDTH 13 0
BBX 9 17 2 0
BITMAP
0600
0600
0C00
1800
0000
0000
7F80
0300
0700
0E00
0C00
1C00
1800
3000
7000
7F80
FF80
ENDCHAR
STARTCHAR 017B
ENCODING 379
SWIDTH 585 0
DWIDTH 13 0
BBX 11 19 1 0
BITMAP
0600
0600
0000
0000
FFE0
FFE0
01C0
0180
0380
0700
0600
0E00
0C00
1C00
3800
3000
7000
FFE0
FFE0
ENDCHAR
STARTCHAR 017C
ENCODING 380
SWIDTH 585 0
DWIDTH 13 0
BBX 9 16 2 0
BITMAP
0C00
0C00
0000
0000
0000
7F80
0300
0700
0E00
0C00
1C00
1800
3000
7000
7F80
FF80
ENDCHAR
STARTCHAR 017D
ENCODING 381
SWIDTH 585 0
DWIDTH 13 0
BBX 11 20 1 0
BITMAP
3180
1B00
0E00
0000
0000
FFE0
FFE0
01C0
0180
0380
0700
0600
0E00
0C00
1C00
3800
3000
7000
FFE0
FFE0
ENDCHAR
STARTCHAR 017E
ENCODING 382
SWIDTH 585 0
DWIDTH 13 0
BBX 9 17 2 0
BITMAP
6300
3200
1600
1C00
0000
0000
7F80
0300
0700
0E00
0C00
1C00
1800
3000
7000
7F80
FF80
ENDCHAR
STARTCHAR 017F
ENCODING 383
SWIDTH 585 0
DWIDTH 13 0
BBX 10 16 2 0
BITMAP
07C0
0FC0
1C00
1800
1800
F800
1800
1800
1800
1800
1800
1800
1800
1800
FFC0
FFC0
ENDCHAR
STARTCHAR 018F
ENCODING 399
SWIDTH 585 0
DWIDTH 13 0
BBX 12 15 1 0
BITMAP
3F80
79C0
E0E0
C060
C060
0060
0070
FFF0
FFF0
C060
C060
E060
60E0
7FC0
3F80
ENDCHAR
STARTCHAR 0191
ENCODING 401
SWIDTH 585 0
DWIDTH 13 0
BBX 13 19 -1 -4
BITMAP
1FF8
1FF0
1800
1800
1800
1800
1FE0
1FE0
1800
1800
1800
1800
1800
1800
1800
1800
1800
B800
F000
ENDCHAR
STARTCHAR 0192
ENCODING 402
SWIDTH 585 0
DWIDTH 13 0
BBX 10 20 1 -4
BITMAP
03C0
0740
0600
0600
0600
1FC0
0600
0E00
0C00
0C00
0C00
0C00
0C00
0C00
1C00
1800
1800
1800
F800
F000
ENDCHAR
STARTCHAR 0197
ENCODING 407
SWIDTH 585 0
DWIDTH 13 0
BBX 9 15 2 0
BITMAP
FF80
FF80
1C00
1C00
1C00
1C00
7F00
7F00
1C00
1C00
1C00
1C00
1C00
FF80
FF80
ENDCHAR
STARTCHAR 019D
ENCODING 413
SWIDTH 585 0
DWIDTH 13 0
BBX 13 19 -1 -4
BITMAP
1818
1C18
1C18
1E18
1E18
1B18
1B18
1998
1998
18D8
18D8
1878
1878
1838
1838
1800
1800
B800
F000
ENDCHAR
STARTCHAR 01A0
ENCODING 416
SWIDTH 585 0
DWIDTH 13 0
BBX 12 17 1 0
BITMAP
0030
0030
3FE0
79C0
60E0
E060
C060
C060
C070
C070
C070
C060
C060
E060
60E0
7FC0
3F80
ENDCHAR
STARTCHAR 01A1
ENCODING 417
SWIDTH 585 0
DWIDTH 13 0
BBX 13 14 1 0
BITMAP
0038
0030
0630
3FE0
71C0
60C0
60E0
E060
E060
E060
60E0
60C0
39C0
1F00
ENDCHAR
STARTCHAR 01AF
ENCODING 431
SWIDTH 585 0
DWIDTH 13 0
BBX 13 18 1 0
BITMAP
0018
0018
0030
E060
E060
E060
E060
E060
E060
E060
E060
E060
E060
E060
60E0
60C0
7FC0
1F80
ENDCHAR
STARTCHAR 01B0
ENCODING 432
SWIDTH 585 0
DWIDTH 13 0
BBX 12 15 2 0
BITMAP
0030
0030
0060
00E0
C180
C180
C180
C180
C180
C180
C180
C180
C380
FFE0
7CE0
ENDCHAR
STARTCHAR 01C4
ENCODING 452
SWIDTH 585 0
DWIDTH 13 0
BBX 12 20 1 0
BITMAP
0120
01E0
00C0
0000
0000
FBF0
FFE0
CC60
CC60
CC40
CCC0
CCC0
CCC0
CD80
CD80
CD80
CD00
CF00
FBF0
F3F0
ENDCHAR
STARTCHAR 01C5
ENCODING 453
SWIDTH 585 0
DWIDTH 13 0
BBX 12 16 1 0
BITMAP
0330
F9E0
FCE0
CC00
CC00
CDF0
CC60
CC60
CC60
CCC0
CCC0
CCC0
CD80
CD80
F9F0
F3F0
ENDCHAR
STARTCHAR 01C6
ENCODING 454
SWIDTH 585 0
DWIDTH 13 0
BBX 13 16 0 0
BITMAP
0698
06D0
0670
0600
3600
7EF8
CE18
C610
C630
C620
C660
C660
C640
C6C0
6EF8
7BF8
ENDCHAR
STARTCHAR 01C7
ENCODING 455
SWIDTH 585 0
DWIDTH 13 0
BBX 10 19 2 -4
BITMAP
C1C0
C1C0
C1C0
C1C0
C1C0
C1C0
C1C0
C1C0
C1C0
C1C0
C1C0
C1C0
C1C0
FDC0
FDC0
01C0
61C0
7F80
3F00
ENDCHAR
STARTCHAR 01C8
ENCODING 456
SWIDTH 585 0
DWIDTH 13 0
BBX 10 20 2 -4
BITMAP
01C0
C1C0
C000
C000
C000
C180
C180
C180
C180
C180
C180
C180
C180
C180
FF80
FF80
0180
0180
1F80
1F00
ENDCHAR
STARTCHAR 01C9
ENCODING 457
SWIDTH 585 0
DWIDTH 13 0
BBX 10 20 2 -4
BITMAP
C1C0
C1C0
C000
C000
C000
C780
C180
C180
C180
C180
C180
C180
C180
C180
C180
C180
0180
0180
1F80
1F00
ENDCHAR
STARTCHAR 01CA
ENCODING 458
SWIDTH 585 0
DWIDTH 13 0
BBX 11 19 1 -4
BITMAP
E660
E660
E660
F660
D660
D660
D660
DE60
CE60
CE60
CE60
CE60
C660
C660
C660
0060
38E0
1FC0
0F80
ENDCHAR
STARTCHAR 01CB
ENCODING 459
SWIDTH 585 0
DWIDTH 13 0
BBX 10 20 2 -4
BITMAP
00C0
CCC0
CC00
CC00
EC00
ECC0
ECC0
FCC0
FCC0
DCC0
DCC0
DCC0
DCC0
CCC0
CCC0
CCC0
00C0
00C0
0FC0
0F80
ENDCHAR
STARTCHAR 01CC
ENCODING 460
SWIDTH 585 0
DWIDTH 13 0
BBX 11 20 1 -4
BITMAP
0060
0060
0000
0000
1800
FC60
EE60
C660
C660
C660
C660
C660
C660
C660
C660
C660
0060
0060
06E0
07C0
ENDCHAR
STARTCHAR 01CD
ENCODING 461
SWIDTH 585 0
DWIDTH 13 0
BBX 13 20 0 0
BITMAP
18C0
0D80
0700
0000
0000
0700
0780
0D80
0D80
0DC0
18C0
18C0
18E0
3860
3060
3FF0
7FF0
6030
6038
E038
ENDCHAR
STARTCHAR 01CE
ENCODING 462
SWIDTH 585 0
DWIDTH 13 0
BBX 12 17 1 0
BITMAP
3180
1300
1A00
0E00
0000
0E00
3F80
71C0
60C0
00C0
0FC0
3FC0
60C0
E0C0
61C0
73D0
3EF0
ENDCHAR
STARTCHAR 01CF
ENCODING 463
SWIDTH 585 0
DWIDTH 13 0
BBX 9 20 2 0
BITMAP
6300
3600
1C00
0000
0000
FF80
FF80
1C00
1C00
1C00
1C00
1C00
1C00
1C00
1C00
1C00
1C00
1C00
FF80
FF80
ENDCHAR
STARTCHAR 01D0
ENCODING 464
SWIDTH 585 0
DWIDTH 13 0
BBX 10 17 2 0
BITMAP
6180
3300
1E00
0C00
0000
0000
FC00
0C00
0C00
0C00
0C00
0C00
0C00
0C00
0C00
FFC0
FFC0
ENDCHAR
STARTCHAR 01D1
ENCODING 465
SWIDTH 585 0
DWIDTH 13 0
BBX 12 20 1 0
BITMAP
3180
1B00
0E00
0000
0000
3F80
79C0
60E0
E060
C060
C060
C070
C070
C070
C060
C060
E060
60E0
7FC0
3F80
ENDCHAR
STARTCHAR 01D2
ENCODING 466
SWIDTH 585 0
DWIDTH 13 0
BBX 11 17 1 0
BITMAP
3180
1900
0B00
0E00
0000
0600
3F80
71C0
60C0
60E0
E060
E060
E060
60E0
60C0
39C0
1F00
ENDCHAR
STARTCHAR 01D3
ENCODING 467
SWIDTH 585 0
DWIDTH 13 0
BBX 11 20 1 0
BITMAP
3180
1B00
0E00
0000
0000
E060
E060
E060
E060
E060
E060
E060
E060
E060
E060
E060
60E0
60C0
7FC0
1F80
ENDCHAR
STARTCHAR 01D4
ENCODING 468
SWIDTH 585 0
DWIDTH 13 0
BBX 11 17 2 0
BITMAP
6300
2600
3400
1C00
0000
0000
C180
C180
C180
C180
C180
C180
C180
C180
C380
FFE0
7CE0
ENDCHAR
STARTCHAR 01D5
ENCODING 469
SWIDTH 585 0
DWIDTH 13 0
BBX 11 22 1 0
BITMAP
3F80
0000
3980
3980
3980
0000
0000
E060
E060
E060
E060
E060
E060
E060
E060
E060
E060
E060
60E0
60C0
7FC0
1F80
ENDCHAR
STARTCHAR 01D6
ENCODING 470
SWIDTH 585 0
DWIDTH 13 0
BBX 11 19 2 0
BITMAP
7F00
7F00
0000
7700
7700
0000
0000
0000
C180
C180
C180
C180
C180
C180
C180
C180
C380
FFE0
7CE0
ENDCHAR
STARTCHAR 01D7
ENCODING 471
SWIDTH 585 0
DWIDTH 13 0
BBX 11 23 1 0
BITMAP
0380
0300
0400
31C0
31C0
31C0
0000
0000
E060
E060
E060
E060
E060
E060
E060
E060
E060
E060
E060
60E0
60C0
7FC0
1F80
ENDCHAR
STARTCHAR 01D8
ENCODING 472
SWIDTH 585 0
DWIDTH 13 0
BBX 11 21 2 0
BITMAP
0300
0600
0C00
0C00
0000
6300
6300
0000
0000
0000
C180
C180
C180
C180
C180
C180
C180
C180
C380
FFE0
7CE0
ENDCHAR
STARTCHAR 01D9
ENCODING 473
SWIDTH 585 0
DWIDTH 13 0
BBX 11 23 1 0
BITMAP
31C0
1F00
0E00
31C0
31C0
31C0
0000
0000
E060
E060
E060
E060
E060
E060
E060
E060
E060
E060
E060
60E0
60C0
7FC0
1F80
ENDCHAR
STARTCHAR 01DA
ENCODING 474
SWIDTH 585 0
DWIDTH 13 0
BBX 11 20 2 0
BITMAP
6300
3600
1C00
0000
6300
6300
0000
0000
0000
C180
C180
C180
C180
C180
C180
C180
C180
C380
FFE0
7CE0
ENDCHAR
STARTCHAR 01DB
ENCODING 475
SWIDTH 585 0
DWIDTH 13 0
BBX 11 23 1 0
BITMAP
3800
0C00
0200
31C0
31C0
31C0
0000
0000
E060
E060
E060
E060
E060
E060
E060
E060
E060
E060
E060
60E0
60C0
7FC0
1F80
ENDCHAR
STARTCHAR 01DC
ENCODING 476
SWIDTH 585 0
DWIDTH 13 0
BBX 11 21 2 0
BITMAP
6000
3000
1800
1800
0000
6300
6300
0000
0000
0000
C180
C180
C180
C180
C180
C180
C180
C180
C380
FFE0
7CE0
ENDCHAR
STARTCHAR 01E4
ENCODING 484
SWIDTH 585 0
DWIDTH 13 0
BBX 12 15 1 0
BITMAP
3F80
79C0
E0E0
E060
C060
C000
C000
C7E0
C7E0
C060
C3F0
E060
60E0
7FA0
3F20
ENDCHAR
STARTCHAR 01E5
ENCODING 485
SWIDTH 585 0
DWIDTH 13 0
BBX 14 17 0 -4
BITMAP
0018
0330
1FC0
3860
3060
3060
3860
1FC0
3F00
3000
3000
3FE0
3FF0
E03C
FFFC
7030
3FE0
ENDCHAR
STARTCHAR 01E6
ENCODING 486
SWIDTH 585 0
DWIDTH 13 0
BBX 11 20 1 0
BITMAP
31C0
1B00
0E00
0000
0000
3F80
79C0
E0E0
E060
C060
C000
C000
C7E0
C7E0
C060
C060
E060
60E0
7FA0
3F20
ENDCHAR
STARTCHAR 01E7
ENCODING 487
SWIDTH 585 0
DWIDTH 13 0
BBX 12 21 1 -4
BITMAP
3180
1900
0B00
0E00
0030
0660
3F80
70C0
60C0
60C0
70C0
3F80
7E00
6000
6000
7FC0
7FE0
C070
C030
E060
7FC0
ENDCHAR
STARTCHAR 01EA
ENCODING 490
SWIDTH 585 0
DWIDTH 13 0
BBX 12 18 1 -3
BITMAP
3F80
79C0
60E0
E060
C060
C060
C070
C070
C070
C060
C060
E060
60E0
7FC0
3F80
0600
0600
0780
ENDCHAR
STARTCHAR 01EB
ENCODING 491
SWIDTH 585 0
DWIDTH 13 0
BBX 11 15 1 -3
BITMAP
0600
3F80
71C0
60C0
60E0
E060
E060
E060
60E0
60C0
39C0
1F00
0600
0C00
0780
ENDCHAR
STARTCHAR 01FA
ENCODING 506
SWIDTH 585 0
DWIDTH 13 0
BBX 13 25 0 0
BITMAP
0180
0100
0300
0000
0700
0C80
0880
0580
0200
0000
0700
0780
0D80
0D80
0DC0
18C0
18C0
18E0
3860
3060
3FF0
7FF0
6030
6038
E038
ENDCHAR
STARTCHAR 01FB
ENCODING 507
SWIDTH 585 0
DWIDTH 13 0
BBX 12 21 1 0
BITMAP
0300
0600
0400
0000
1E00
1100
1B00
0E00
0000
0E00
3F80
71C0
60C0
00C0
0FC0
3FC0
60C0
E0C0
61C0
73D0
3EF0
ENDCHAR
STARTCHAR 01FC
ENCODING 508
SWIDTH 585 0
DWIDTH 13 0
BBX 13 20 0 0
BITMAP
0060
00C0
0180
0000
0000
07F8
0FF8
0D80
0D80
1D80
1980
19F0
39F0
3180
3180
7F80
7F80
6180
E1F8
C1F8
ENDCHAR
STARTCHAR 01FD
ENCODING 509
SWIDTH 585 0
DWIDTH 13 0
BBX 13 17 0 0
BITMAP
0180
0180
0300
0600
0000
1840
7DF0
6718
4318
0318
1FF8
7FF8
6300
C318
C718
6DB0
79F0
ENDCHAR
STARTCHAR 01FE
ENCODING 510
SWIDTH 585 0
DWIDTH 13 0
BBX 13 21 0 -1
BITMAP
00C0
0180
0300
0018
0010
1FE0
3CE0
3070
70F0
60B0
61B0
6338
6238
6638
6430
6C30
7830
3070
3FE0
3FC0
E000
ENDCHAR
STARTCHAR 01FF
ENCODING 511
SWIDTH 585 0
DWIDTH 13 0
BBX 11 18 1 -1
BITMAP
0300
0300
0600
0C00
0060
0640
3F80
71C0
61C0
62E0
E660
E460
EC60
68E0
70C0
39C0
3F00
4000
ENDCHAR
STARTCHAR 0200
ENCODING 512
SWIDTH 585 0
DWIDTH 13 0
BBX 13 20 0 0
BITMAP
3600
1B00
0980
0400
0000
0700
0780
0D80
0D80
0DC0
18C0
18C0
18E0
3860
3060
3FF0
7FF0
6030
6038
E038
ENDCHAR
STARTCHAR 0201
ENCODING 513
SWIDTH 585 0
DWIDTH 13 0
BBX 12 16 1 0
BITMAP
EE00
3200
1B00
0000
0E00
3F80
71C0
60C0
00C0
0FC0
3FC0
60C0
E0C0
61C0
73D0
3EF0
ENDCHAR
STARTCHAR 0202
ENCODING 514
SWIDTH 585 0
DWIDTH 13 0
BBX 13 20 0 0
BITMAP
0F80
1FC0
3060
0000
0000
0700
0780
0D80
0D80
0DC0
18C0
18C0
18E0
3860
3060
3FF0
7FF0
6030
6038
E038
ENDCHAR
STARTCHAR 0203
ENCODING 515
SWIDTH 585 0
DWIDTH 13 0
BBX 12 16 1 0
BITMAP
3F80
3180
60C0
0000
0E00
3F80
71C0
60C0
00C0
0FC0
3FC0
60C0
E0C0
61C0
73D0
3EF0
ENDCHAR
STARTCHAR 0204
ENCODING 516
SWIDTH 585 0
DWIDTH 13 0
BBX 10 20 2 0
BITMAP
DC00
6400
3600
0100
0000
FFC0
FFC0
C000
C000
C000
C000
FF80
FF80
C000
C000
C000
C000
C000
FFC0
FFC0
ENDCHAR
STARTCHAR 0205
ENCODING 517
SWIDTH 585 0
DWIDTH 13 0
BBX 11 16 1 0
BITMAP
7E00
3300
1980
0000
0600
3F80
71C0
60C0
6060
FFE0
FFE0
E000
6060
60C0
39C0
1F80
ENDCHAR
STARTCHAR 0206
ENCODING 518
SWIDTH 585 0
DWIDTH 13 0
BBX 10 20 2 0
BITMAP
1E00
7F80
6080
0000
0000
FFC0
FFC0
C000
C000
C000
C000
FF80
FF80
C000
C000
C000
C000
C000
FFC0
FFC0
ENDCHAR
STARTCHAR 0207
ENCODING 519
SWIDTH 585 0
DWIDTH 13 0
BBX 11 16 1 0
BITMAP
1F80
30C0
20C0
0000
0600
3F80
71C0
60C0
6060
FFE0
FFE0
E000
6060
60C0
39C0
1F80
ENDCHAR
STARTCHAR 0208
ENCODING 520
SWIDTH 585 0
DWIDTH 13 0
BBX 9 20 2 0
BITMAP
D800
6C00
2600
1000
0000
FF80
FF80
1C00
1C00
1C00
1C00
1C00
1C00
1C00
1C00
1C00
1C00
1C00
FF80
FF80
ENDCHAR
STARTCHAR 0209
ENCODING 521
SWIDTH 585 0
DWIDTH 13 0
BBX 10 16 2 0
BITMAP
EC00
3600
3300
0000
0000
FC00
0C00
0C00
0C00
0C00
0C00
0C00
0C00
0C00
FFC0
FFC0
ENDCHAR
STARTCHAR 020A
ENCODING 522
SWIDTH 585 0
DWIDTH 13 0
BBX 9 20 2 0
BITMAP
3E00
7F00
C180
0000
0000
FF80
FF80
1C00
1C00
1C00
1C00
1C00
1C00
1C00
1C00
1C00
1C00
1C00
FF80
FF80
ENDCHAR
STARTCHAR 020B
ENCODING 523
SWIDTH 585 0
DWIDTH 13 0
BBX 10 16 2 0
BITMAP
3F00
6180
6080
0000
0000
FC00
0C00
0C00
0C00
0C00
0C00
0C00
0C00
0C00
FFC0
FFC0
ENDCHAR
STARTCHAR 020C
ENCODING 524
SWIDTH 585 0
DWIDTH 13 0
BBX 12 20 1 0
BITMAP
6C00
3600
1300
0800
0000
3F80
79C0
60E0
E060
C060
C060
C070
C070
C070
C060
C060
E060
60E0
7FC0
3F80
ENDCHAR
STARTCHAR 020D
ENCODING 525
SWIDTH 585 0
DWIDTH 13 0
BBX 11 16 1 0
BITMAP
6E00
3300
1900
0000
0600
3F80
71C0
60C0
60E0
E060
E060
E060
60E0
60C0
39C0
1F00
ENDCHAR
STARTCHAR 020E
ENCODING 526
SWIDTH 585 0
DWIDTH 13 0
BBX 12 20 1 0
BITMAP
1F00
3F80
60C0
0000
0000
3F80
79C0
60E0
E060
C060
C060
C070
C070
C070
C060
C060
E060
60E0
7FC0
3F80
ENDCHAR
STARTCHAR 020F
ENCODING 527
SWIDTH 585 0
DWIDTH 13 0
BBX 11 16 1 0
BITMAP
1F80
30C0
20C0
0000
0600
3F80
71C0
60C0
60E0
E060
E060
E060
60E0
60C0
39C0
1F00
ENDCHAR
STARTCHAR 0210
ENCODING 528
SWIDTH 585 0
DWIDTH 13 0
BBX 11 20 2 0
BITMAP
DC00
6C00
2600
1000
0000
FF80
FFC0
C0C0
C0E0
C0C0
C0C0
C1C0
FF00
FF80
C1C0
C0C0
C0C0
C0C0
C0C0
C060
ENDCHAR
STARTCHAR 0211
ENCODING 529
SWIDTH 585 0
DWIDTH 13 0
BBX 11 16 1 0
BITMAP
7600
1300
1980
0000
0180
FFE0
1C60
1860
1860
1800
1800
1800
1800
1800
FFC0
FFC0
ENDCHAR
STARTCHAR 0212
ENCODING 530
SWIDTH 585 0
DWIDTH 13 0
BBX 11 20 2 0
BITMAP
1E00
7F00
4180
0000
0000
FF80
FFC0
C0C0
C0E0
C0C0
C0C0
C1C0
FF00
FF80
C1C0
C0C0
C0C0
C0C0
C0C0
C060
ENDCHAR
STARTCHAR 0213
ENCODING 531
SWIDTH 585 0
DWIDTH 13 0
BBX 11 16 1 0
BITMAP
1F80
30C0
2040
0000
0180
FFE0
1C60
1860
1860
1800
1800
1800
1800
1800
FFC0
FFC0
ENDCHAR
STARTCHAR 0214
ENCODING 532
SWIDTH 585 0
DWIDTH 13 0
BBX 11 20 1 0
BITMAP
6C00
3600
1300
0800
0000
E060
E060
E060
E060
E060
E060
E060
E060
E060
E060
E060
60E0
60C0
7FC0
1F80
ENDCHAR
STARTCHAR 0215
ENCODING 533
SWIDTH 585 0
DWIDTH 13 0
BBX 11 16 2 0
BITMAP
DC00
6400
3600
0000
0000
C180
C180
C180
C180
C180
C180
C180
C180
C380
FFE0
7CE0
ENDCHAR
STARTCHAR 0216
ENCODING 534
SWIDTH 585 0
DWIDTH 13 0
BBX 11 20 1 0
BITMAP
1F00
3F80
60C0
0000
0000
E060
E060
E060
E060
E060
E060
E060
E060
E060
E060
E060
60E0
60C0
7FC0
1F80
ENDCHAR
STARTCHAR 0217
ENCODING 535
SWIDTH 585 0
DWIDTH 13 0
BBX 11 16 2 0
BITMAP
7F00
6300
C180
0000
0000
C180
C180
C180
C180
C180
C180
C180
C180
C380
FFE0
7CE0
ENDCHAR
STARTCHAR 0218
ENCODING 536
SWIDTH 585 0
DWIDTH 13 0
BBX 11 22 1 -7
BITMAP
3F80
71C0
E060
E060
E000
7000
7F00
1FC0
01E0
0060
C060
C060
E0E0
7FE0
3F80
0000
0000
0600
0600
0600
0400
0C00
ENDCHAR
STARTCHAR 0219
ENCODING 537
SWIDTH 585 0
DWIDTH 13 0
BBX 10 19 2 -7
BITMAP
0C00
7F00
C180
C180
E000
FC00
3F80
0380
C1C0
C1C0
E380
7F00
0000
0000
0C00
0C00
0C00
0800
1800
ENDCHAR
STARTCHAR 021A
ENCODING 538
SWIDTH 585 0
DWIDTH 13 0
BBX 12 22 1 -7
BITMAP
FFF0
FFF0
0600
0600
0600
0600
0600
0600
0600
0600
0600
0600
0600
0600
0600
0000
0000
0600
0600
0600
0400
0C00
ENDCHAR
STARTCHAR 021B
ENCODING 539
SWIDTH 585 0
DWIDTH 13 0
BBX 11 22 1 -7
BITMAP
0C00
0C00
0C00
1C00
FFE0
1C00
1C00
1C00
1C00
1C00
1C00
1C00
1C00
0FE0
07E0
0000
0000
0300
0300
0100
0300
0200
ENDCHAR
STARTCHAR 022A
ENCODING 554
SWIDTH 585 0
DWIDTH 13 0
BBX 12 22 1 0
BITMAP
3F80
0000
3980
3980
3980
0000
0000
3F80
79C0
60E0
E060
C060
C060
C070
C070
C070
C060
C060
E060
60E0
7FC0
3F80
ENDCHAR
STARTCHAR 022B
ENCODING 555
SWIDTH 585 0
DWIDTH 13 0
BBX 11 19 1 0
BITMAP
3F80
3F80
0000
3980
3980
0000
0000
0600
3F80
71C0
60C0
60E0
E060
E060
E060
60E0
60C0
39C0
1F00
ENDCHAR
STARTCHAR 022C
ENCODING 556
SWIDTH 585 0
DWIDTH 13 0
BBX 12 22 1 0
BITMAP
3F80
3F80
0000
3FC0
6380
0000
0000
3F80
79C0
60E0
E060
C060
C060
C070
C070
C070
C060
C060
E060
60E0
7FC0
3F80
ENDCHAR
STARTCHAR 022D
ENCODING 557
SWIDTH 585 0
DWIDTH 13 0
BBX 11 18 1 0
BITMAP
3F80
0000
3C40
7FC0
0000
0000
0600
3F80
71C0
60C0
60E0
E060
E060
E060
60E0
60C0
39C0
1F00
ENDCHAR
STARTCHAR 0230
ENCODING 560
SWIDTH 585 0
DWIDTH 13 0
BBX 12 22 1 0
BITMAP
3F80
0000
0000
0E00
0E00
0000
0000
3F80
79C0
60E0
E060
C060
C060
C070
C070
C070
C060
C060
E060
60E0
7FC0
3F80
ENDCHAR
STARTCHAR 0231
ENCODING 561
SWIDTH 585 0
DWIDTH 13 0
BBX 11 18 1 0
BITMAP
3F80
0000
0E00
0E00
0000
0000
0600
3F80
71C0
60C0
60E0
E060
E060
E060
60E0
60C0
39C0
1F00
ENDCHAR
STARTCHAR 0232
ENCODING 562
SWIDTH 585 0
DWIDTH 13 0
BBX 13 19 0 0
BITMAP
1FC0
1FC0
0000
8000
6038
7030
3060
3860
18C0
1CC0
0F80
0780
0700
0300
0300
0300
0300
0300
0300
ENDCHAR
STARTCHAR 0233
ENCODING 563
SWIDTH 585 0
DWIDTH 13 0
BBX 11 19 1 -4
BITMAP
3F80
0000
0000
0000
E060
60C0
70C0
30C0
3180
1980
1B00
1F00
0F00
0E00
0E00
0C00
0C00
7800
7800
ENDCHAR
STARTCHAR 0237
ENCODING 567
SWIDTH 585 0
DWIDTH 13 0
BBX 6 15 2 -4
BITMAP
FC
0C
0C
0C
0C
0C
0C
0C
0C
0C
0C
0C
0C
FC
F8
ENDCHAR
STARTCHAR 0244
ENCODING 580
SWIDTH 585 0
DWIDTH 13 0
BBX 13 15 0 0
BITMAP
7030
7030
7030
7030
7030
FFF8
FFF8
7030
7030
7030
7030
3070
3060
3FE0
0FC0
ENDCHAR
STARTCHAR 0259
ENCODING 601
SWIDTH 585 0
DWIDTH 13 0
BBX 10 12 2 0
BITMAP
0C00
7F00
E380
C1C0
C1C0
00C0
FFC0
C0C0
C1C0
C180
7380
3E00
ENDCHAR
STARTCHAR 0268
ENCODING 616
SWIDTH 585 0
DWIDTH 13 0
BBX 10 16 2 0
BITMAP
0C00
0C00
0000
0000
0000
FC00
0C00
0C00
0C00
7F80
7F80
0C00
0C00
0C00
FFC0
FFC0
ENDCHAR
STARTCHAR 026A
ENCODING 618
SWIDTH 585 0
DWIDTH 13 0
BBX 7 11 3 0
BITMAP
FE
18
18
18
18
18
18
18
18
FE
FE
ENDCHAR
STARTCHAR 0272
ENCODING 626
SWIDTH 585 0
DWIDTH 13 0
BBX 13 16 -1 -4
BITMAP
0080
1FE0
1C70
1C30
1838
1838
1838
1838
1838
1838
1838
1838
1800
1800
B800
F000
ENDCHAR
STARTCHAR 0289
ENCODING 649
SWIDTH 585 0
DWIDTH 13 0
BBX 13 11 0 0
BITMAP
3060
3060
3060
3060
FFF8
3060
3060
3060
30E0
3FF8
1F38
ENDCHAR
STARTCHAR 02B9
ENCODING 697
SWIDTH 585 0
DWIDTH 13 0
BBX 3 3 5 13
BITMAP
60
40
C0
ENDCHAR
STARTCHAR 02BA
ENCODING 698
SWIDTH 585 0
DWIDTH 13 0
BBX 7 3 3 13
BITMAP
76
6C
CC
ENDCHAR
STARTCHAR 02BC
ENCODING 700
SWIDTH 585 0
DWIDTH 13 0
BBX 2 5 6 12
BITMAP
C0
C0
40
80
80
ENDCHAR
STARTCHAR 02C6
ENCODING 710
SWIDTH 585 0
DWIDTH 13 0
BBX 7 4 3 13
BITMAP
38
3C
6C
C6
ENDCHAR
STARTCHAR 02C7
ENCODING 711
SWIDTH 585 0
DWIDTH 13 0
BBX 7 4 3 13
BITMAP
C6
64
2C
38
ENDCHAR
STARTCHAR 02C9
ENCODING 713
SWIDTH 585 0
DWIDTH 13 0
BBX 7 1 3 15
BITMAP
FE
ENDCHAR
STARTCHAR 02CD
ENCODING 717
SWIDTH 585 0
DWIDTH 13 0
BBX 7 1 3 -3
BITMAP
FE
ENDCHAR
STARTCHAR 02D8
ENCODING 728
SWIDTH 585 0
DWIDTH 13 0
BBX 7 3 3 13
BITMAP
C2
EE
38
ENDCHAR
STARTCHAR 02D9
ENCODING 729
SWIDTH 585 0
DWIDTH 13 0
BBX 2 2 6 14
BITMAP
C0
C0
ENDCHAR
STARTCHAR 02DA
ENCODING 730
SWIDTH 585 0
DWIDTH 13 0
BBX 5 4 4 13
BITMAP
78
88
C8
70
ENDCHAR
STARTCHAR 02DB
ENCODING 731
SWIDTH 585 0
DWIDTH 13 0
BBX 5 3 4 -3
BITMAP
60
C0
78
ENDCHAR
STARTCHAR 02DC
ENCODING 732
SWIDTH 585 0
DWIDTH 13 0
BBX 8 3 3 13
BITMAP
F3
9E
84
ENDCHAR
STARTCHAR 02DD
ENCODING 733
SWIDTH 585 0
DWIDTH 13 0
BBX 8 3 3 13
BITMAP
77
4C
D8
ENDCHAR
STARTCHAR 0300
ENCODING 768
SWIDTH 0 0
DWIDTH 0 0
BBX 4 4 5 13
BITMAP
C0
C0
60
30
ENDCHAR
STARTCHAR 0301
ENCODING 769
SWIDTH 0 0
DWIDTH 0 0
BBX 4 4 5 13
BITMAP
70
60
C0
C0
ENDCHAR
STARTCHAR 0302
ENCODING 770
SWIDTH 0 0
DWIDTH 0 0
BBX 7 4 3 13
BITMAP
38
3C
6C
C6
ENDCHAR
STARTCHAR 0303
ENCODING 771
SWIDTH 0 0
DWIDTH 0 0
BBX 8 3 3 13
BITMAP
F3
9E
84
ENDCHAR
STARTCHAR 0304
ENCODING 772
SWIDTH 0 0
DWIDTH 0 0
BBX 7 1 3 14
BITMAP
FE
ENDCHAR
STARTCHAR 0306
ENCODING 774
SWIDTH 0 0
DWIDTH 0 0
BBX 7 3 3 13
BITMAP
C2
EE
38
ENDCHAR
STARTCHAR 0307
ENCODING 775
SWIDTH 0 0
DWIDTH 0 0
BBX 2 2 6 14
BITMAP
C0
C0
ENDCHAR
STARTCHAR 0308
ENCODING 776
SWIDTH 0 0
DWIDTH 0 0
BBX 7 2 3 14
BITMAP
C6
C6
ENDCHAR
STARTCHAR 0309
ENCODING 777
SWIDTH 0 0
DWIDTH 0 0
BBX 4 5 5 12
BITMAP
E0
30
30
60
80
ENDCHAR
STARTCHAR 030A
ENCODING 778
SWIDTH 0 0
DWIDTH 0 0
BBX 5 4 4 13
BITMAP
78
88
C8
70
ENDCHAR
STARTCHAR 030B
ENCODING 779
SWIDTH 0 0
DWIDTH 0 0
BBX 8 3 3 13
BITMAP
77
4C
D8
ENDCHAR
STARTCHAR 030C
ENCODING 780
SWIDTH 0 0
DWIDTH 0 0
BBX 7 4 3 13
BITMAP
C6
64
2C
38
ENDCHAR
STARTCHAR 030F
ENCODING 783
SWIDTH 0 0
DWIDTH 0 0
BBX 8 3 3 13
BITMAP
DC
66
33
ENDCHAR
STARTCHAR 0311
ENCODING 785
SWIDTH 0 0
DWIDTH 0 0
BBX 8 3 3 13
BITMAP
7E
C3
83
ENDCHAR
STARTCHAR 0312
ENCODING 786
SWIDTH 0 0
DWIDTH 0 0
BBX 2 6 6 13
BITMAP
C0
80
80
C0
C0
C0
ENDCHAR
STARTCHAR 0313
ENCODING 787
SWIDTH 0 0
DWIDTH 0 0
BBX 3 6 5 13
BITMAP
60
60
60
60
40
C0
ENDCHAR
STARTCHAR 031B
ENCODING 795
SWIDTH 0 0
DWIDTH 0 0
BBX 4 5 5 10
BITMAP
30
30
60
E0
80
ENDCHAR
STARTCHAR 0323
ENCODING 803
SWIDTH 0 0
DWIDTH 0 0
BBX 3 2 5 -4
BITMAP
E0
E0
ENDCHAR
STARTCHAR 0324
ENCODING 804
SWIDTH 0 0
DWIDTH 0 0
BBX 7 2 3 -4
BITMAP
C6
C6
ENDCHAR
STARTCHAR 0326
ENCODING 806
SWIDTH 0 0
DWIDTH 0 0
BBX 3 5 5 -7
BITMAP
60
60
20
40
C0
ENDCHAR
STARTCHAR 0327
ENCODING 807
SWIDTH 0 0
DWIDTH 0 0
BBX 5 4 4 -5
BITMAP
38
08
F8
60
ENDCHAR
STARTCHAR 0328
ENCODING 808
SWIDTH 0 0
DWIDTH 0 0
BBX 5 3 4 -3
BITMAP
60
C0
78
ENDCHAR
STARTCHAR 032E
ENCODING 814
SWIDTH 0 0
DWIDTH 0 0
BBX 8 3 3 -5
BITMAP
83
FE
7C
ENDCHAR
STARTCHAR 0330
ENCODING 816
SWIDTH 0 0
DWIDTH 0 0
BBX 8 3 3 -5
BITMAP
F3
9E
84
ENDCHAR
STARTCHAR 0331
ENCODING 817
SWIDTH 0 0
DWIDTH 0 0
BBX 7 1 3 -3
BITMAP
FE
ENDCHAR
STARTCHAR 0335
ENCODING 821
SWIDTH 0 0
DWIDTH 0 0
BBX 9 1 2 7
BITMAP
FF80
ENDCHAR
STARTCHAR 0336
ENCODING 822
SWIDTH 0 0
DWIDTH 0 0
BBX 13 2 0 7
BITMAP
FFF8
FFF8
ENDCHAR
STARTCHAR 0337
ENCODING 823
SWIDTH 0 0
DWIDTH 0 0
BBX 9 6 2 5
BITMAP
0080
0380
0E00
3800
E000
8000
ENDCHAR
STARTCHAR 0338
ENCODING 824
SWIDTH 0 0
DWIDTH 0 0
BBX 10 14 2 -1
BITMAP
00C0
0080
0100
0300
0200
0400
0C00
0800
1800
1000
2000
6000
4000
8000
ENDCHAR
STARTCHAR 0394
ENCODING 916
SWIDTH 585 0
DWIDTH 13 0
BBX 12 15 1 0
BITMAP
0E00
0F00
1B00
1B00
1B80
3180
3180
31C0
70C0
60C0
60E0
E060
C060
FFF0
FFF0
ENDCHAR
STARTCHAR 03A9
ENCODING 937
SWIDTH 585 0
DWIDTH 13 0
BBX 13 15 0 0
BITMAP
1FC0
3CE0
7070
6030
6038
6038
6038
6038
6038
6038
6030
6030
3020
F878
FCF8
ENDCHAR
STARTCHAR 03BC
ENCODING 956
SWIDTH 585 0
DWIDTH 13 0
BBX 11 15 2 -4
BITMAP
C180
C180
C180
C180
C180
C180
C180
C180
C380
FFE0
FCE0
C000
C000
C000
C000
ENDCHAR
STARTCHAR 03C0
ENCODING 960
SWIDTH 585 0
DWIDTH 13 0
BBX 13 11 0 0
BITMAP
FFF8
9860
1860
1860
1860
1860
1860
3060
3060
3060
3060
ENDCHAR
STARTCHAR 1E24
ENCODING 7716
SWIDTH 585 0
DWIDTH 13 0
BBX 10 19 2 -4
BITMAP
C1C0
C1C0
C1C0
C1C0
C1C0
C1C0
FFC0
FFC0
C1C0
C1C0
C1C0
C1C0
C1C0
C1C0
C1C0
0000
0000
1C00
1C00
ENDCHAR
STARTCHAR 1E25
ENCODING 7717
SWIDTH 585 0
DWIDTH 13 0
BBX 10 20 2 -4
BITMAP
C000
C000
C000
C000
C400
DF00
E380
C180
C1C0
C1C0
C1C0
C1C0
C1C0
C1C0
C1C0
C1C0
0000
0000
1C00
1C00
ENDCHAR
STARTCHAR 1E62
ENCODING 7778
SWIDTH 585 0
DWIDTH 13 0
BBX 11 19 1 -4
BITMAP
3F80
71C0
E060
E060
E000
7000
7F00
1FC0
01E0
0060
C060
C060
E0E0
7FE0
3F80
0000
0000
0E00
0E00
ENDCHAR
STARTCHAR 1E63
ENCODING 7779
SWIDTH 585 0
DWIDTH 13 0
BBX 10 16 2 -4
BITMAP
0C00
7F00
C180
C180
E000
FC00
3F80
0380
C1C0
C1C0
E380
7F00
0000
0000
1C00
1C00
ENDCHAR
STARTCHAR 1E6C
ENCODING 7788
SWIDTH 585 0
DWIDTH 13 0
BBX 12 19 1 -4
BITMAP
FFF0
FFF0
0600
0600
0600
0600
0600
0600
0600
0600
0600
0600
0600
0600
0600
0000
0000
0E00
0E00
ENDCHAR
STARTCHAR 1E6D
ENCODING 7789
SWIDTH 585 0
DWIDTH 13 0
BBX 11 19 1 -4
BITMAP
0C00
0C00
0C00
1C00
FFE0
1C00
1C00
1C00
1C00
1C00
1C00
1C00
1C00
0FE0
07E0
0000
0000
0300
0300
ENDCHAR
STARTCHAR 1E80
ENCODING 7808
SWIDTH 585 0
DWIDTH 13 0
BBX 13 20 0 0
BITMAP
1C00
0E00
0600
0100
0000
C318
C318
E718
6718
6798
6590
65B0
65B0
7DB0
3CB0
3CB0
38E0
38E0
38E0
38E0
ENDCHAR
STARTCHAR 1E81
ENCODING 7809
SWIDTH 585 0
DWIDTH 13 0
BBX 13 17 0 0
BITMAP
0C00
0600
0600
0300
0000
0000
C318
C718
6718
6790
65B0
6DB0
2CB0
3CB0
38E0
38E0
38E0
ENDCHAR
STARTCHAR 1E82
ENCODING 7810
SWIDTH 585 0
DWIDTH 13 0
BBX 13 20 0 0
BITMAP
00C0
0180
0300
0000
0000
C318
C318
E718
6718
6798
6590
65B0
65B0
7DB0
3CB0
3CB0
38E0
38E0
38E0
38E0
ENDCHAR
STARTCHAR 1E83
ENCODING 7811
SWIDTH 585 0
DWIDTH 13 0
BBX 13 17 0 0
BITMAP
0180
0180
0300
0200
0000
0000
C318
C718
6718
6790
65B0
6DB0
2CB0
3CB0
38E0
38E0
38E0
ENDCHAR
STARTCHAR 1E84
ENCODING 7812
SWIDTH 585 0
DWIDTH 13 0
BBX 13 19 0 0
BITMAP
18C0
18C0
0000
0000
C318
C318
E718
6718
6798
6590
65B0
65B0
7DB0
3CB0
3CB0
38E0
38E0
38E0
38E0
ENDCHAR
STARTCHAR 1E85
ENCODING 7813
SWIDTH 585 0
DWIDTH 13 0
BBX 13 16 0 0
BITMAP
18C0
18C0
0000
0000
0000
C318
C718
6718
6790
65B0
6DB0
2CB0
3CB0
38E0
38E0
38E0
ENDCHAR
STARTCHAR 1E9E
ENCODING 7838
SWIDTH 585 0
DWIDTH 13 0
BBX 11 15 1 0
BITMAP
1FC0
39E0
6060
6060
E060
E0E0
E7C0
E7C0
E0E0
E060
E060
E060
E060
E7E0
E780
ENDCHAR
STARTCHAR 1EA0
ENCODING 7840
SWIDTH 585 0
DWIDTH 13 0
BBX 13 19 0 -4
BITMAP
0700
0780
0D80
0D80
0DC0
18C0
18C0
18E0
3860
3060
3FF0
7FF0
6030
6038
E038
0000
0000
0700
0700
ENDCHAR
STARTCHAR 1EA1
ENCODING 7841
SWIDTH 585 0
DWIDTH 13 0
BBX 12 16 1 -4
BITMAP
0E00
3F80
71C0
60C0
00C0
0FC0
3FC0
60C0
E0C0
61C0
73D0
3EF0
0000
0000
0E00
0E00
ENDCHAR
STARTCHAR 1EA2
ENCODING 7842
SWIDTH 585 0
DWIDTH 13 0
BBX 13 21 0 0
BITMAP
0780
0180
0180
0300
0000
0000
0700
0780
0D80
0D80
0DC0
18C0
18C0
18E0
3860
3060
3FF0
7FF0
6030
6038
E038
ENDCHAR
STARTCHAR 1EA3
ENCODING 7843
SWIDTH 585 0
DWIDTH 13 0
BBX 12 17 1 0
BITMAP
0E00
0300
0300
0600
0800
0E00
3F80
71C0
60C0
00C0
0FC0
3FC0
60C0
E0C0
61C0
73D0
3EF0
ENDCHAR
STARTCHAR 1EA4
ENCODING 7844
SWIDTH 585 0
DWIDTH 13 0
BBX 13 23 0 0
BITMAP
01C0
0300
0000
0300
0F80
18C0
0020
0000
0700
0780
0D80
0D80
0DC0
18C0
18C0
18E0
3860
3060
3FF0
7FF0
6030
6038
E038
ENDCHAR
STARTCHAR 1EA5
ENCODING 7845
SWIDTH 585 0
DWIDTH 13 0
BBX 12 21 1 0
BITMAP
0180
0300
0600
0400
0000
0E00
1B00
3180
0000
0E00
3F80
71C0
60C0
00C0
0FC0
3FC0
60C0
E0C0
61C0
73D0
3EF0
ENDCHAR
STARTCHAR 1EA6
ENCODING 7846
SWIDTH 585 0
DWIDTH 13 0
BBX 13 23 0 0
BITMAP
0C00
0600
0000
0300
0F80
18C0
0020
0000
0700
0780
0D80
0D80
0DC0
18C0
18C0
18E0
3860
3060
3FF0
7FF0
6030
6038
E038
ENDCHAR
STARTCHAR 1EA7
ENCODING 7847
SWIDTH 585 0
DWIDTH 13 0
BBX 12 21 1 0
BITMAP
3000
1800
0C00
0400
0000
0E00
1B00
3180
0000
0E00
3F80
71C0
60C0
00C0
0FC0
3FC0
60C0
E0C0
61C0
73D0
3EF0
ENDCHAR
STARTCHAR 1EA8
ENCODING 7848
SWIDTH 585 0
DWIDTH 13 0
BBX 13 25 0 0
BITMAP
0200
0780
0080
0100
0200
0300
0F80
18C0
0020
0000
0700
0780
0D80
0D80
0DC0
18C0
18C0
18E0
3860
3060
3FF0
7FF0
6030
6038
E038
ENDCHAR
STARTCHAR 1EA9
ENCODING 7849
SWIDTH 585 0
DWIDTH 13 0
BBX 12 21 1 0
BITMAP
0E00
0300
0200
0400
0000
0E00
1B00
3180
0000
0E00
3F80
71C0
60C0
00C0
0FC0
3FC0
60C0
E0C0
61C0
73D0
3EF0
ENDCHAR
STARTCHAR 1EAA
ENCODING 7850
SWIDTH 585 0
DWIDTH 13 0
BBX 13 23 0 0
BITMAP
0E60
1FC0
0000
0300
0780
18C0
0020
0000
0700
0780
0D80
0D80
0DC0
18C0
18C0
18E0
3860
3060
3FF0
7FF0
6030
6038
E038
ENDCHAR
STARTCHAR 1EAB
ENCODING 7851
SWIDTH 585 0
DWIDTH 13 0
BBX 12 20 1 0
BITMAP
18C0
3F80
6300
0000
0E00
1B00
3180
0000
0E00
3F80
71C0
60C0
00C0
0FC0
3FC0
60C0
E0C0
61C0
73D0
3EF0
ENDCHAR
STARTCHAR 1EAC
ENCODING 7852
SWIDTH 585 0
DWIDTH 13 0
BBX 13 24 0 -4
BITMAP
0700
0D80
18C0
0000
0000
0700
0780
0D80
0D80
0DC0
18C0
18C0
18E0
3860
3060
3FF0
7FF0
6030
6038
E038
0000
0000
0700
0700
ENDCHAR
STARTCHAR 1EAD
ENCODING 7853
SWIDTH 585 0
DWIDTH 13 0
BBX 12 21 1 -4
BITMAP
0E00
0A00
1B00
3180
0000
0E00
3F80
71C0
60C0
00C0
0FC0
3FC0
60C0
E0C0
61C0
73D0
3EF0
0000
0000
0E00
0E00
ENDCHAR
STARTCHAR 1EAE
ENCODING 7854
SWIDTH 585 0
DWIDTH 13 0
BBX 13 23 0 0
BITMAP
01C0
0180
0300
1060
18C0
0F80
0000
0000
0700
0780
0D80
0D80
0DC0
18C0
18C0
18E0
3860
3060
3FF0
7FF0
6030
6038
E038
ENDCHAR
STARTCHAR 1EAF
ENCODING 7855
SWIDTH 585 0
DWIDTH 13 0
BBX 12 20 1 0
BITMAP
0380
0300
0600
0C40
6080
3F80
0E00
0000
0E00
3F80
71C0
60C0
00C0
0FC0
3FC0
60C0
E0C0
61C0
73D0
3EF0
ENDCHAR
STARTCHAR 1EB0
ENCODING 7856
SWIDTH 585 0
DWIDTH 13 0
BBX 13 23 0 0
BITMAP
0C00
0600
0300
1060
18C0
0F80
0000
0000
0700
0780
0D80
0D80
0DC0
18C0
18C0
18E0
3860
3060
3FF0
7FF0
6030
6038
E038
ENDCHAR
STARTCHAR 1EB1
ENCODING 7857
SWIDTH 585 0
DWIDTH 13 0
BBX 12 20 1 0
BITMAP
3800
1800
0C00
4240
2080
3F80
0000
0000
0E00
3F80
71C0
60C0
00C0
0FC0
3FC0
60C0
E0C0
61C0
73D0
3EF0
ENDCHAR
STARTCHAR 1EB2
ENCODING 7858
SWIDTH 585 0
DWIDTH 13 0
BBX 13 24 0 0
BITMAP
0700
0180
0180
0300
1060
18C0
0F80
0000
0000
0700
0780
0D80
0D80
0DC0
18C0
18C0
18E0
3860
3060
3FF0
7FF0
6030
6038
E038
ENDCHAR
STARTCHAR 1EB3
ENCODING 7859
SWIDTH 585 0
DWIDTH 13 0
BBX 12 21 1 0
BITMAP
0C00
0E00
0200
0600
4040
2080
3F80
0000
0000
0E00
3F80
71C0
60C0
00C0
0FC0
3FC0
60C0
E0C0
61C0
73D0
3EF0
ENDCHAR
STARTCHAR 1EB4
ENCODING 7860
SWIDTH 585 0
DWIDTH 13 0
BBX 13 23 0 0
BITMAP
0E60
1FC0
0000
1060
18C0
0F80
0000
0000
0700
0780
0D80
0D80
0DC0
18C0
18C0
18E0
3860
3060
3FF0
7FF0
6030
6038
E038
ENDCHAR
STARTCHAR 1EB5
ENCODING 7861
SWIDTH 585 0
DWIDTH 13 0
BBX 12 20 1 0
BITMAP
18C0
3F80
6300
4040
2080
3F80
0000
0000
0E00
3F80
71C0
60C0
00C0
0FC0
3FC0
60C0
E0C0
61C0
73D0
3EF0
ENDCHAR
STARTCHAR 1EB6
ENCODING 7862
SWIDTH 585 0
DWIDTH 13 0
BBX 13 24 0 -4
BITMAP
1840
18C0
0F80
0000
0000
0700
0780
0D80
0D80
0DC0
18C0
18C0
18E0
3860
3060
3FF0
7FF0
6030
6038
E038
0000
0000
0700
0700
ENDCHAR
STARTCHAR 1EB7
ENCODING 7863
SWIDTH 585 0
DWIDTH 13 0
BBX 12 20 1 -4
BITMAP
2180
3B80
0E00
0000
0E00
3F80
71C0
60C0
00C0
0FC0
3FC0
60C0
E0C0
61C0
73D0
3EF0
0000
0000
0E00
0E00
ENDCHAR
STARTCHAR 1EB8
ENCODING 7864
SWIDTH 585 0
DWIDTH 13 0
BBX 10 19 2 -4
BITMAP
FFC0
FFC0
C000
C000
C000
C000
FF80
FF80
C000
C000
C000
C000
C000
FFC0
FFC0
0000
0000
0C00
0C00
ENDCHAR
STARTCHAR 1EB9
ENCODING 7865
SWIDTH 585 0
DWIDTH 13 0
BBX 11 16 1 -4
BITMAP
0600
3F80
71C0
60C0
6060
FFE0
FFE0
E000
6060
60C0
39C0
1F80
0000
0000
0E00
0E00
ENDCHAR
STARTCHAR 1EBA
ENCODING 7866
SWIDTH 585 0
DWIDTH 13 0
BBX 10 21 2 0
BITMAP
1E00
0200
0200
0C00
0000
0000
FFC0
FFC0
C000
C000
C000
C000
FF80
FF80
C000
C000
C000
C000
C000
FFC0
FFC0
ENDCHAR
STARTCHAR 1EBB
ENCODING 7867
SWIDTH 585 0
DWIDTH 13 0
BBX 11 17 1 0
BITMAP
0F00
0100
0100
0600
0400
0600
3F80
71C0
60C0
6060
FFE0
FFE0
E000
6060
60C0
39C0
1F80
ENDCHAR
STARTCHAR 1EBC
ENCODING 7868
SWIDTH 585 0
DWIDTH 13 0
BBX 10 20 2 0
BITMAP
1080
7F80
4700
0000
0000
FFC0
FFC0
C000
C000
C000
C000
FF80
FF80
C000
C000
C000
C000
C000
FFC0
FFC0
ENDCHAR
STARTCHAR 1EBD
ENCODING 7869
SWIDTH 585 0
DWIDTH 13 0
BBX 11 16 1 0
BITMAP
1CC0
2780
2100
0000
0600
3F80
71C0
60C0
6060
FFE0
FFE0
E000
6060
60C0
39C0
1F80
ENDCHAR
STARTCHAR 1EBE
ENCODING 7870
SWIDTH 585 0
DWIDTH 13 0
BBX 10 23 2 0
BITMAP
0700
0600
0800
0C00
1E00
7380
0000
0000
FFC0
FFC0
C000
C000
C000
C000
FF80
FF80
C000
C000
C000
C000
C000
FFC0
FFC0
ENDCHAR
STARTCHAR 1EBF
ENCODING 7871
SWIDTH 585 0
DWIDTH 13 0
BBX 11 21 1 0
BITMAP
0180
0300
0300
0600
0000
0F00
1B00
30C0
0000
0600
3F80
71C0
60C0
6060
FFE0
FFE0
E000
6060
60C0
39C0
1F80
ENDCHAR
STARTCHAR 1EC0
ENCODING 7872
SWIDTH 585 0
DWIDTH 13 0
BBX 10 23 2 0
BITMAP
3800
1800
0400
0C00
1E00
7380
0000
0000
FFC0
FFC0
C000
C000
C000
C000
FF80
FF80
C000
C000
C000
C000
C000
FFC0
FFC0
ENDCHAR
STARTCHAR 1EC1
ENCODING 7873
SWIDTH 585 0
DWIDTH 13 0
BBX 11 21 1 0
BITMAP
3800
1800
0C00
0600
0000
0F00
1B80
30C0
0000
0600
3F80
71C0
60C0
6060
FFE0
FFE0
E000
6060
60C0
39C0
1F80
ENDCHAR
STARTCHAR 1EC2
ENCODING 7874
SWIDTH 585 0
DWIDTH 13 0
BBX 10 25 2 0
BITMAP
0400
0E00
0200
0600
0800
0C00
1E00
7380
0000
0000
FFC0
FFC0
C000
C000
C000
C000
FF80
FF80
C000
C000
C000
C000
C000
FFC0
FFC0
ENDCHAR
STARTCHAR 1EC3
ENCODING 7875
SWIDTH 585 0
DWIDTH 13 0
BBX 11 21 1 0
BITMAP
0700
0100
0300
0400
0000
0F00
1B80
30C0
0000
0600
3F80
71C0
60C0
6060
FFE0
FFE0
E000
6060
60C0
39C0
1F80
ENDCHAR
STARTCHAR 1EC4
ENCODING 7876
SWIDTH 585 0
DWIDTH 13 0
BBX 10 23 2 0
BITMAP
3880
7F80
0000
0C00
1E00
7380
0000
0000
FFC0
FFC0
C000
C000
C000
C000
FF80
FF80
C000
C000
C000
C000
C000
FFC0
FFC0
ENDCHAR
STARTCHAR 1EC5
ENCODING 7877
SWIDTH 585 0
DWIDTH 13 0
BBX 11 20 1 0
BITMAP
1840
3FC0
2380
0000
0F00
1B80
30C0
0000
0600
3F80
71C0
60C0
6060
FFE0
FFE0
E000
6060
60C0
39C0
1F80
ENDCHAR
STARTCHAR 1EC6
ENCODING 7878
SWIDTH 585 0
DWIDTH 13 0
BBX 10 24 2 -4
BITMAP
0C00
1E00
7300
0080
0000
FFC0
FFC0
C000
C000
C000
C000
FF80
FF80
C000
C000
C000
C000
C000
FFC0
FFC0
0000
0000
0C00
0C00
ENDCHAR
STARTCHAR 1EC7
ENCODING 7879
SWIDTH 585 0
DWIDTH 13 0
BBX 11 21 1 -4
BITMAP
0600
0F00
1980
31C0
0000
0600
3F80
71C0
60C0
6060
FFE0
FFE0
E000
6060
60C0
39C0
1F80
0000
0000
0E00
0E00
ENDCHAR
STARTCHAR 1EC8
ENCODING 7880
SWIDTH 585 0
DWIDTH 13 0
BBX 9 21 2 0
BITMAP
1E00
0600
0600
0C00
0000
0000
FF80
FF80
1C00
1C00
1C00
1C00
1C00
1C00
1C00
1C00
1C00
1C00
1C00
FF80
FF80
ENDCHAR
STARTCHAR 1EC9
ENCODING 7881
SWIDTH 585 0
DWIDTH 13 0
BBX 10 17 2 0
BITMAP
1E00
0200
0200
0600
0800
0000
FC00
0C00
0C00
0C00
0C00
0C00
0C00
0C00
0C00
FFC0
FFC0
ENDCHAR
STARTCHAR 1ECA
ENCODING 7882
SWIDTH 585 0
DWIDTH 13 0
BBX 9 19 2 -4
BITMAP
FF80
FF80
1C00
1C00
1C00
1C00
1C00
1C00
1C00
1C00
1C00
1C00
1C00
FF80
FF80
0000
0000
1C00
1C00
ENDCHAR
STARTCHAR 1ECB
ENCODING 7883
SWIDTH 585 0
DWIDTH 13 0
BBX 10 20 2 -4
BITMAP
0C00
0C00
0000
0000
0000
FC00
0C00
0C00
0C00
0C00
0C00
0C00
0C00
0C00
FFC0
FFC0
0000
0000
0E00
0E00
ENDCHAR
STARTCHAR 1ECC
ENCODING 7884
SWIDTH 585 0
DWIDTH 13 0
BBX 12 19 1 -4
BITMAP
3F80
79C0
60E0
E060
C060
C060
C070
C070
C070
C060
C060
E060
60E0
7FC0
3F80
0000
0000
0E00
0E00
ENDCHAR
STARTCHAR 1ECD
ENCODING 7885
SWIDTH 585 0
DWIDTH 13 0
BBX 11 16 1 -4
BITMAP
0600
3F80
71C0
60C0
60E0
E060
E060
E060
60E0
60C0
39C0
1F00
0000
0000
0E00
0E00
ENDCHAR
STARTCHAR 1ECE
ENCODING 7886
SWIDTH 585 0
DWIDTH 13 0
BBX 12 21 1 0
BITMAP
0F00
0300
0300
0600
0000
0000
3F80
79C0
60E0
E060
C060
C060
C070
C070
C070
C060
C060
E060
60E0
7FC0
3F80
ENDCHAR
STARTCHAR 1ECF
ENCODING 7887
SWIDTH 585 0
DWIDTH 13 0
BBX 11 17 1 0
BITMAP
0F00
0300
0300
0600
0400
0600
3F80
71C0
60C0
60E0
E060
E060
E060
60E0
60C0
39C0
1F00
ENDCHAR
STARTCHAR 1ED0
ENCODING 7888
SWIDTH 585 0
DWIDTH 13 0
BBX 12 23 1 0
BITMAP
0380
0600
0000
0600
1F00
3180
0040
0000
3F80
79C0
60E0
E060
C060
C060
C070
C070
C070
C060
C060
E060
60E0
7FC0
3F80
ENDCHAR
STARTCHAR 1ED1
ENCODING 7889
SWIDTH 585 0
DWIDTH 13 0
BBX 11 21 1 0
BITMAP
0180
0300
0200
0600
0000
0E00
1B00
31C0
0000
0600
3F80
71C0
60C0
60E0
E060
E060
E060
60E0
60C0
39C0
1F00
ENDCHAR
STARTCHAR 1ED2
ENCODING 7890
SWIDTH 585 0
DWIDTH 13 0
BBX 12 23 1 0
BITMAP
1800
0C00
0000
0600
1F00
3180
0040
0000
3F80
79C0
60E0
E060
C060
C060
C070
C070
C070
C060
C060
E060
60E0
7FC0
3F80
ENDCHAR
STARTCHAR 1ED3
ENCODING 7891
SWIDTH 585 0
DWIDTH 13 0
BBX 11 21 1 0
BITMAP
3000
1800
0C00
0400
0000
0E00
1B00
31C0
0000
0600
3F80
71C0
60C0
60E0
E060
E060
E060
60E0
60C0
39C0
1F00
ENDCHAR
STARTCHAR 1ED4
ENCODING 7892
SWIDTH 585 0
DWIDTH 13 0
BBX 12 25 1 0
BITMAP
0400
0F00
0100
0200
0400
0600
1F00
3180
0040
0000
3F80
79C0
60E0
E060
C060
C060
C070
C070
C070
C060
C060
E060
60E0
7FC0
3F80
ENDCHAR
STARTCHAR 1ED5
ENCODING 7893
SWIDTH 585 0
DWIDTH 13 0
BBX 11 21 1 0
BITMAP
0F00
0100
0200
0400
0000
0E00
1B00
31C0
0000
0600
3F80
71C0
60C0
60E0
E060
E060
E060
60E0
60C0
39C0
1F00
ENDCHAR
STARTCHAR 1ED6
ENCODING 7894
SWIDTH 585 0
DWIDTH 13 0
BBX 12 23 1 0
BITMAP
1CC0
3F80
0000
0600
0F00
3180
0040
0000
3F80
79C0
60E0
E060
C060
C060
C070
C070
C070
C060
C060
E060
60E0
7FC0
3F80
ENDCHAR
STARTCHAR 1ED7
ENCODING 7895
SWIDTH 585 0
DWIDTH 13 0
BBX 11 20 1 0
BITMAP
1840
3F80
2300
0000
0E00
1B00
31C0
0000
0600
3F80
71C0
60C0
60E0
E060
E060
E060
60E0
60C0
39C0
1F00
ENDCHAR
STARTCHAR 1ED8
ENCODING 7896
SWIDTH 585 0
DWIDTH 13 0
BBX 12 24 1 -4
BITMAP
0E00
1B00
3180
0000
0000
3F80
79C0
60E0
E060
C060
C060
C070
C070
C070
C060
C060
E060
60E0
7FC0
3F80
0000
0000
0E00
0E00
ENDCHAR
STARTCHAR 1ED9
ENCODING 7897
SWIDTH 585 0
DWIDTH 13 0
BBX 11 21 1 -4
BITMAP
0E00
0F00
1B00
3180
0000
0600
3F80
71C0
60C0
60E0
E060
E060
E060
60E0
60C0
39C0
1F00
0000
0000
0E00
0E00
ENDCHAR
STARTCHAR 1EDA
ENCODING 7898
SWIDTH 585 0
DWIDTH 13 0
BBX 12 20 1 0
BITMAP
0180
0300
0600
0030
0030
3FE0
79C0
60E0
E060
C060
C060
C070
C070
C070
C060
C060
E060
60E0
7FC0
3F80
ENDCHAR
STARTCHAR 1EDB
ENCODING 7899
SWIDTH 585 0
DWIDTH 13 0
BBX 13 17 1 0
BITMAP
0300
0300
0600
0C38
0030
0630
3FE0
71C0
60C0
60E0
E060
E060
E060
60E0
60C0
39C0
1F00
ENDCHAR
STARTCHAR 1EDC
ENCODING 7900
SWIDTH 585 0
DWIDTH 13 0
BBX 12 20 1 0
BITMAP
3800
1C00
0C00
0230
0030
3FE0
79C0
60E0
E060
C060
C060
C070
C070
C070
C060
C060
E060
60E0
7FC0
3F80
ENDCHAR
STARTCHAR 1EDD
ENCODING 7901
SWIDTH 585 0
DWIDTH 13 0
BBX 13 17 1 0
BITMAP
1800
0C00
0C00
0638
0030
0630
3FE0
71C0
60C0
60E0
E060
E060
E060
60E0
60C0
39C0
1F00
ENDCHAR
STARTCHAR 1EDE
ENCODING 7902
SWIDTH 585 0
DWIDTH 13 0
BBX 12 21 1 0
BITMAP
0F00
0300
0300
0600
0030
0030
3FE0
79C0
60E0
E060
C060
C060
C070
C070
C070
C060
C060
E060
60E0
7FC0
3F80
ENDCHAR
STARTCHAR 1EDF
ENCODING 7903
SWIDTH 585 0
DWIDTH 13 0
BBX 13 17 1 0
BITMAP
0F00
0300
0300
0638
0430
0630
3FE0
71C0
60C0
60E0
E060
E060
E060
60E0
60C0
39C0
1F00
ENDCHAR
STARTCHAR 1EE0
ENCODING 7904
SWIDTH 585 0
DWIDTH 13 0
BBX 12 20 1 0
BITMAP
0880
3F80
2730
0030
0030
3FE0
79C0
60E0
E060
C060
C060
C070
C070
C070
C060
C060
E060
60E0
7FC0
3F80
ENDCHAR
STARTCHAR 1EE1
ENCODING 7905
SWIDTH 585 0
DWIDTH 13 0
BBX 13 16 1 0
BITMAP
1C80
3780
2138
0030
0630
3FE0
71C0
60C0
60E0
E060
E060
E060
60E0
60C0
39C0
1F00
ENDCHAR
STARTCHAR 1EE2
ENCODING 7906
SWIDTH 585 0
DWIDTH 13 0
BBX 12 21 1 -4
BITMAP
0030
0030
3FE0
79C0
60E0
E060
C060
C060
C070
C070
C070
C060
C060
E060
60E0
7FC0
3F80
0000
0000
0E00
0E00
ENDCHAR
STARTCHAR 1EE3
ENCODING 7907
SWIDTH 585 0
DWIDTH 13 0
BBX 13 18 1 -4
BITMAP
0038
0030
0630
3FE0
71C0
60C0
60E0
E060
E060
E060
60E0
60C0
39C0
1F00
0000
0000
0E00
0E00
ENDCHAR
STARTCHAR 1EE4
ENCODING 7908
SWIDTH 585 0
DWIDTH 13 0
BBX 11 19 1 -4
BITMAP
E060
E060
E060
E060
E060
E060
E060
E060
E060
E060
E060
60E0
60C0
7FC0
1F80
0000
0000
0E00
0E00
ENDCHAR
STARTCHAR 1EE5
ENCODING 7909
SWIDTH 585 0
DWIDTH 13 0
BBX 11 15 2 -4
BITMAP
C180
C180
C180
C180
C180
C180
C180
C180
C380
FFE0
7CE0
0000
0000
1C00
1C00
ENDCHAR
STARTCHAR 1EE6
ENCODING 7910
SWIDTH 585 0
DWIDTH 13 0
BBX 11 21 1 0
BITMAP
0F00
0300
0300
0600
0000
0000
E060
E060
E060
E060
E060
E060
E060
E060
E060
E060
E060
60E0
60C0
7FC0
1F80
ENDCHAR
STARTCHAR 1EE7
ENCODING 7911
SWIDTH 585 0
DWIDTH 13 0
BBX 11 17 2 0
BITMAP
1C00
0600
0600
0C00
1000
0000
C180
C180
C180
C180
C180
C180
C180
C180
C380
FFE0
7CE0
ENDCHAR
STARTCHAR 1EE8
ENCODING 7912
SWIDTH 585 0
DWIDTH 13 0
BBX 13 20 1 0
BITMAP
0180
0300
0618
0018
0030
E060
E060
E060
E060
E060
E060
E060
E060
E060
E060
E060
60E0
60C0
7FC0
1F80
ENDCHAR
STARTCHAR 1EE9
ENCODING 7913
SWIDTH 585 0
DWIDTH 13 0
BBX 12 17 2 0
BITMAP
0600
0C00
0C30
1830
0060
00E0
C180
C180
C180
C180
C180
C180
C180
C180
C380
FFE0
7CE0
ENDCHAR
STARTCHAR 1EEA
ENCODING 7914
SWIDTH 585 0
DWIDTH 13 0
BBX 13 20 1 0
BITMAP
3800
1C00
0C18
0218
0030
E060
E060
E060
E060
E060
E060
E060
E060
E060
E060
E060
60E0
60C0
7FC0
1F80
ENDCHAR
STARTCHAR 1EEB
ENCODING 7915
SWIDTH 585 0
DWIDTH 13 0
BBX 12 17 2 0
BITMAP
3000
1000
1830
0C30
0060
00E0
C180
C180
C180
C180
C180
C180
C180
C180
C380
FFE0
7CE0
ENDCHAR
STARTCHAR 1EEC
ENCODING 7916
SWIDTH 585 0
DWIDTH 13 0
BBX 13 21 1 0
BITMAP
0F00
0300
0300
0618
0018
0030
E060
E060
E060
E060
E060
E060
E060
E060
E060
E060
E060
60E0
60C0
7FC0
1F80
ENDCHAR
STARTCHAR 1EED
ENCODING 7917
SWIDTH 585 0
DWIDTH 13 0
BBX 12 17 2 0
BITMAP
1C00
0600
0630
0C30
1060
00E0
C180
C180
C180
C180
C180
C180
C180
C180
C380
FFE0
7CE0
ENDCHAR
STARTCHAR 1EEE
ENCODING 7918
SWIDTH 585 0
DWIDTH 13 0
BBX 13 20 1 0
BITMAP
08C0
3F80
2798
0018
0030
E060
E060
E060
E060
E060
E060
E060
E060
E060
E060
E060
60E0
60C0
7FC0
1F80
ENDCHAR
STARTCHAR 1EEF
ENCODING 7919
SWIDTH 585 0
DWIDTH 13 0
BBX 12 16 2 0
BITMAP
7900
4F30
4430
0060
00E0
C180
C180
C180
C180
C180
C180
C180
C180
C380
FFE0
7CE0
ENDCHAR
STARTCHAR 1EF0
ENCODING 7920
SWIDTH 585 0
DWIDTH 13 0
BBX 13 22 1 -4
BITMAP
0018
0018
0030
E060
E060
E060
E060
E060
E060
E060
E060
E060
E060
E060
60E0
60C0
7FC0
1F80
0000
0000
0E00
0E00
ENDCHAR
STARTCHAR 1EF1
ENCODING 7921
SWIDTH 585 0
DWIDTH 13 0
BBX 12 19 2 -4
BITMAP
0030
0030
0060
00E0
C180
C180
C180
C180
C180
C180
C180
C180
C380
FFE0
7CE0
0000
0000
1C00
1C00
ENDCHAR
STARTCHAR 1EF2
ENCODING 7922
SWIDTH 585 0
DWIDTH 13 0
BBX 13 20 0 0
BITMAP
1C00
0E00
0600
0100
8000
6038
7030
3060
3860
18C0
1CC0
0F80
0780
0700
0300
0300
0300
0300
0300
0300
ENDCHAR
STARTCHAR 1EF3
ENCODING 7923
SWIDTH 585 0
DWIDTH 13 0
BBX 11 21 1 -4
BITMAP
1800
0C00
0400
0600
0000
0000
E060
60C0
70C0
30C0
3180
1980
1B00
1F00
0F00
0E00
0E00
0C00
0C00
7800
7800
ENDCHAR
STARTCHAR 1EF4
ENCODING 7924
SWIDTH 585 0
DWIDTH 13 0
BBX 13 19 0 -4
BITMAP
E038
7030
3060
3860
18C0
1CC0
0F80
0780
0700
0300
0300
0300
0300
0300
0300
0000
0000
0700
0700
ENDCHAR
STARTCHAR 1EF5
ENCODING 7925
SWIDTH 585 0
DWIDTH 13 0
BBX 11 15 1 -4
BITMAP
E060
60C0
70C0
30C0
3180
1980
1B00
1F00
0F00
0E00
0E00
0C00
0C00
78E0
78E0
ENDCHAR
STARTCHAR 1EF6
ENCODING 7926
SWIDTH 585 0
DWIDTH 13 0
BBX 13 21 0 0
BITMAP
0780
0180
0180
0300
0000
8000
6038
7030
3060
3860
18C0
1CC0
0F80
0780
0700
0300
0300
0300
0300
0300
0300
ENDCHAR
STARTCHAR 1EF7
ENCODING 7927
SWIDTH 585 0
DWIDTH 13 0
BBX 11 21 1 -4
BITMAP
0F00
0100
0100
0700
0400
0000
E060
60C0
70C0
30C0
3180
1980
1B00
1F00
0F00
0E00
0E00
0C00
0C00
7800
7800
ENDCHAR
STARTCHAR 1EF8
ENCODING 7928
SWIDTH 585 0
DWIDTH 13 0
BBX 13 20 0 0
BITMAP
0460
1FC0
13C0
0000
8000
6038
7030
3060
3860
18C0
1CC0
0F80
0780
0700
0300
0300
0300
0300
0300
0300
ENDCHAR
STARTCHAR 1EF9
ENCODING 7929
SWIDTH 585 0
DWIDTH 13 0
BBX 11 20 1 -4
BITMAP
1CC0
3780
2100
0000
0000
E060
60C0
70C0
30C0
3180
1980
1B00
1F00
0F00
0E00
0E00
0C00
0C00
7800
7800
ENDCHAR
STARTCHAR 2009
ENCODING 8201
SWIDTH 585 0
DWIDTH 13 0
BBX 0 0 0 0
BITMAP
ENDCHAR
STARTCHAR 2010
ENCODING 8208
SWIDTH 585 0
DWIDTH 13 0
BBX 5 2 4 5
BITMAP
F8
F8
ENDCHAR
STARTCHAR 2011
ENCODING 8209
SWIDTH 585 0
DWIDTH 13 0
BBX 5 2 4 5
BITMAP
F8
F8
ENDCHAR
STARTCHAR 2013
ENCODING 8211
SWIDTH 585 0
DWIDTH 13 0
BBX 9 2 2 5
BITMAP
FF80
FF80
ENDCHAR
STARTCHAR 2014
ENCODING 8212
SWIDTH 585 0
DWIDTH 13 0
BBX 13 2 0 5
BITMAP
FFF8
FFF8
ENDCHAR
STARTCHAR 2018
ENCODING 8216
SWIDTH 585 0
DWIDTH 13 0
BBX 3 6 5 9
BITMAP
60
40
C0
E0
E0
E0
ENDCHAR
STARTCHAR 2019
ENCODING 8217
SWIDTH 585 0
DWIDTH 13 0
BBX 3 6 5 10
BITMAP
E0
E0
E0
60
60
C0
ENDCHAR
STARTCHAR 201A
ENCODING 8218
SWIDTH 585 0
DWIDTH 13 0
BBX 3 6 5 -3
BITMAP
E0
E0
E0
60
60
C0
ENDCHAR
STARTCHAR 201C
ENCODING 8220
SWIDTH 585 0
DWIDTH 13 0
BBX 7 6 3 9
BITMAP
66
44
C4
E6
E6
E6
ENDCHAR
STARTCHAR 201D
ENCODING 8221
SWIDTH 585 0
DWIDTH 13 0
BBX 7 6 3 10
BITMAP
E6
E6
E6
62
46
CC
ENDCHAR
STARTCHAR 201E
ENCODING 8222
SWIDTH 585 0
DWIDTH 13 0
BBX 7 6 3 -3
BITMAP
E6
E6
E6
62
46
CC
ENDCHAR
STARTCHAR 2020
ENCODING 8224
SWIDTH 585 0
DWIDTH 13 0
BBX 11 19 1 -4
BITMAP
0600
0600
0400
0400
FFE0
E460
0400
0400
0400
0400
0400
0400
0600
0600
0600
0600
0600
0600
0600
ENDCHAR
STARTCHAR 2021
ENCODING 8225
SWIDTH 585 0
DWIDTH 13 0
BBX 11 19 1 -4
BITMAP
0600
0600
0400
0400
FFE0
E460
0400
0600
0600
0600
0600
0400
0400
FFE0
FFE0
0400
0400
0600
0600
ENDCHAR
STARTCHAR 2022
ENCODING 8226
SWIDTH 585 0
DWIDTH 13 0
BBX 7 7 3 4
BITMAP
38
7C
FE
FE
7E
7C
38
ENDCHAR
STARTCHAR 2026
ENCODING 8230
SWIDTH 585 0
DWIDTH 13 0
BBX 11 3 1 0
BITMAP
EE60
EE60
EE60
ENDCHAR
STARTCHAR 2030
ENCODING 8240
SWIDTH 585 0
DWIDTH 13 0
BBX 13 15 0 0
BITMAP
3C00
6400
4400
4400
4400
7C00
0000
FFF8
1860
7DF0
4510
4510
4510
6590
38E0
ENDCHAR
STARTCHAR 2032
ENCODING 8242
SWIDTH 585 0
DWIDTH 13 0
BBX 3 3 5 12
BITMAP
60
60
C0
ENDCHAR
STARTCHAR 2033
ENCODING 8243
SWIDTH 585 0
DWIDTH 13 0
BBX 7 3 3 12
BITMAP
7E
6C
CC
ENDCHAR
STARTCHAR 2039
ENCODING 8249
SWIDTH 585 0
DWIDTH 13 0
BBX 4 7 5 4
BITMAP
30
60
C0
C0
C0
60
30
ENDCHAR
STARTCHAR 203A
ENCODING 8250
SWIDTH 585 0
DWIDTH 13 0
BBX 4 7 5 4
BITMAP
C0
40
60
30
60
40
C0
ENDCHAR
STARTCHAR 2044
ENCODING 8260
SWIDTH 585 0
DWIDTH 13 0
BBX 13 15 0 0
BITMAP
0018
0030
0020
0040
00C0
0180
0000
0000
0000
0C00
0800
1000
3000
6000
C000
ENDCHAR
STARTCHAR 2052
ENCODING 8274
SWIDTH 585 0
DWIDTH 13 0
BBX 13 19 0 -3
BITMAP
0018
0030
3030
3060
0060
00C0
0080
0180
0300
0300
0600
0600
0C00
0C00
1800
1060
3060
6060
E000
ENDCHAR
STARTCHAR 2070
ENCODING 8304
SWIDTH 585 0
DWIDTH 13 0
BBX 5 9 4 9
BITMAP
70
C8
88
88
88
88
88
C8
70
ENDCHAR
STARTCHAR 2074
ENCODING 8308
SWIDTH 585 0
DWIDTH 13 0
BBX 6 9 3 9
BITMAP
10
30
28
68
48
FC
FC
08
08
ENDCHAR
STARTCHAR 2075
ENCODING 8309
SWIDTH 585 0
DWIDTH 13 0
BBX 6 9 4 9
BITMAP
F8
F8
80
B0
C8
0C
8C
D8
70
ENDCHAR
STARTCHAR 2076
ENCODING 8310
SWIDTH 585 0
DWIDTH 13 0
BBX 6 9 3 9
BITMAP
38
6C
44
D8
EC
C4
44
6C
38
ENDCHAR
STARTCHAR 2077
ENCODING 8311
SWIDTH 585 0
DWIDTH 13 0
BBX 6 9 4 9
BITMAP
FC
F8
18
10
20
20
60
60
60
ENDCHAR
STARTCHAR 2078
ENCODING 8312
SWIDTH 585 0
DWIDTH 13 0
BBX 6 9 4 9
BITMAP
70
C8
88
C8
70
8C
8C
CC
70
ENDCHAR
STARTCHAR 2079
ENCODING 8313
SWIDTH 585 0
DWIDTH 13 0
BBX 6 9 3 9
BITMAP
38
6C
C4
C4
6C
34
C4
6C
38
ENDCHAR
STARTCHAR 207F
ENCODING 8319
SWIDTH 585 0
DWIDTH 13 0
BBX 6 7 4 8
BITMAP
F8
8C
8C
8C
8C
8C
8C
ENDCHAR
STARTCHAR 2080
ENCODING 8320
SWIDTH 585 0
DWIDTH 13 0
BBX 5 9 4 -4
BITMAP
70
C8
88
88
88
88
88
C8
70
ENDCHAR
STARTCHAR 2081
ENCODING 8321
SWIDTH 585 0
DWIDTH 13 0
BBX 5 9 4 -4
BITMAP
20
E0
20
20
20
20
20
F8
F8
ENDCHAR
STARTCHAR 2082
ENCODING 8322
SWIDTH 585 0
DWIDTH 13 0
BBX 6 9 4 -4
BITMAP
70
D8
8C
08
18
30
C0
FC
FC
ENDCHAR
STARTCHAR 2083
ENCODING 8323
SWIDTH 585 0
DWIDTH 13 0
BBX 6 9 4 -4
BITMAP
70
D8
88
08
38
08
8C
D8
70
ENDCHAR
STARTCHAR 2084
ENCODING 8324
SWIDTH 585 0
DWIDTH 13 0
BBX 6 9 3 -4
BITMAP
10
30
28
68
48
FC
FC
08
08
ENDCHAR
STARTCHAR 2085
ENCODING 8325
SWIDTH 585 0
DWIDTH 13 0
BBX 6 9 4 -4
BITMAP
F8
F8
80
B0
C8
0C
8C
D8
70
ENDCHAR
STARTCHAR 2086
ENCODING 8326
SWIDTH 585 0
DWIDTH 13 0
BBX 6 9 3 -4
BITMAP
38
6C
44
D8
EC
C4
44
6C
38
ENDCHAR
STARTCHAR 2087
ENCODING 8327
SWIDTH 585 0
DWIDTH 13 0
BBX 6 9 4 -4
BITMAP
FC
F8
18
10
20
20
60
60
60
ENDCHAR
STARTCHAR 2088
ENCODING 8328
SWIDTH 585 0
DWIDTH 13 0
BBX 6 9 4 -4
BITMAP
70
C8
88
C8
70
8C
8C
CC
70
ENDCHAR
STARTCHAR 2089
ENCODING 8329
SWIDTH 585 0
DWIDTH 13 0
BBX 6 9 3 -4
BITMAP
38
6C
C4
C4
6C
34
C4
6C
38
ENDCHAR
STARTCHAR 2099
ENCODING 8345
SWIDTH 585 0
DWIDTH 13 0
BBX 6 7 4 -3
BITMAP
F8
8C
8C
8C
8C
8C
8C
ENDCHAR
STARTCHAR 20A1
ENCODING 8353
SWIDTH 585 0
DWIDTH 13 0
BBX 12 18 1 -1
BITMAP
01B0
0120
0FE0
3E40
7A40
66C0
E480
C480
CD80
C900
DB00
FB00
F200
7600
3C00
3F80
6F80
4800
ENDCHAR
STARTCHAR 20A3
ENCODING 8355
SWIDTH 585 0
DWIDTH 13 0
BBX 11 15 1 0
BITMAP
7FE0
7FC0
6000
6000
6000
6000
7F80
7F80
6000
6000
6000
FE00
6000
6000
6000
ENDCHAR
STARTCHAR 20A4
ENCODING 8356
SWIDTH 585 0
DWIDTH 13 0
BBX 11 16 1 0
BITMAP
0200
1FC0
1CE0
3060
3060
3000
3000
FF80
3000
3000
FF80
FF80
3000
3000
FFE0
FFE0
ENDCHAR
STARTCHAR 20A6
ENCODING 8358
SWIDTH 585 0
DWIDTH 13 0
BBX 13 15 0 0
BITMAP
3030
3830
3830
3C30
3C30
FFF8
3630
3330
3330
FFF8
31B0
30F0
30F0
3070
3070
ENDCHAR
STARTCHAR 20A7
ENCODING 8359
SWIDTH 585 0
DWIDTH 13 0
BBX 13 15 1 0
BITMAP
7FC0
7FE0
6060
FFF8
FFF8
6070
60E0
7FC0
7F80
6000
6000
6000
6000
6000
6000
ENDCHAR
STARTCHAR 20A9
ENCODING 8361
SWIDTH 585 0
DWIDTH 13 0
BBX 13 15 0 0
BITMAP
C318
C318
E718
6718
6798
FFF8
65B0
65B0
7DB0
FFF8
3CB0
38E0
38E0
38E0
38E0
ENDCHAR
STARTCHAR 20AB
ENCODING 8363
SWIDTH 585 0
DWIDTH 13 0
BBX 12 19 1 -3
BITMAP
00C0
00C0
0FF0
00C0
0CC0
3FC0
71C0
60C0
E0C0
E0C0
E0C0
E0C0
E0C0
60C0
73C0
3E40
0000
0000
7FC0
ENDCHAR
STARTCHAR 20AC
ENCODING 8364
SWIDTH 585 0
DWIDTH 13 0
BBX 11 15 1 0
BITMAP
07E0
0F20
1C00
3800
3000
FF80
FF80
3000
FF80
FF80
3800
1800
1C00
0FE0
03E0
ENDCHAR
STARTCHAR 20AD
ENCODING 8365
SWIDTH 585 0
DWIDTH 13 0
BBX 12 15 1 0
BITMAP
6070
60E0
61C0
6180
6300
6700
FFF0
FFF0
6700
6300
6380
61C0
60C0
60E0
6070
ENDCHAR
STARTCHAR 20B1
ENCODING 8369
SWIDTH 585 0
DWIDTH 13 0
BBX 14 15 0 0
BITMAP
3FE0
3FF0
F03C
F03C
3038
F03C
3070
3FE0
3FC0
3000
3000
3000
3000
3000
3000
ENDCHAR
STARTCHAR 20B2
ENCODING 8370
SWIDTH 585 0
DWIDTH 13 0
BBX 11 18 1 -1
BITMAP
0600
0600
3F80
7FC0
E4E0
C460
C460
C400
C400
C7E0
C7E0
C460
C460
E460
64E0
7FA0
3F20
0600
ENDCHAR
STARTCHAR 20B5
ENCODING 8373
SWIDTH 585 0
DWIDTH 13 0
BBX 11 18 1 -1
BITMAP
0080
0180
3F80
79C0
63E0
E260
C260
C660
C400
C400
C400
CC60
C860
E860
78E0
7FC0
3F80
3000
ENDCHAR
STARTCHAR 20B9
ENCODING 8377
SWIDTH 585 0
DWIDTH 13 0
BBX 12 15 1 0
BITMAP
FFF0
FF00
0380
FFF0
FFE0
0180
0380
FF00
F800
7000
3800
1C00
0E00
0700
0380
ENDCHAR
STARTCHAR 20BA
ENCODING 8378
SWIDTH 585 0
DWIDTH 13 0
BBX 11 15 1 0
BITMAP
7000
7000
7200
7600
7C00
7800
F200
FE00
7800
7000
F060
F060
70E0
7FC0
7F80
ENDCHAR
STARTCHAR 20BC
ENCODING 8380
SWIDTH 585 0
DWIDTH 13 0
BBX 12 17 1 0
BITMAP
0400
0400
3F80
7FC0
E460
C460
C430
C430
C430
C430
C430
C430
C430
C430
C030
C030
C030
ENDCHAR
STARTCHAR 20BD
ENCODING 8381
SWIDTH 585 0
DWIDTH 13 0
BBX 13 15 0 0
BITMAP
3FE0
3FF0
3030
3038
3038
3030
3070
FFE0
FF80
3000
3000
FE00
3000
3000
3000
ENDCHAR
STARTCHAR 2113
ENCODING 8467
SWIDTH 585 0
DWIDTH 13 0
BBX 10 16 1 0
BITMAP
0600
1F80
1980
3880
30C0
30C0
3080
3080
3180
3F00
FC00
3000
3000
3800
3900
1F00
ENDCHAR
STARTCHAR 2116
ENCODING 8470
SWIDTH 585 0
DWIDTH 13 0
BBX 12 15 1 0
BITMAP
C400
C400
E400
E400
A400
A4E0
B5B0
B5B0
95B0
95B0
95B0
9DA0
9CE0
8C00
8DF0
ENDCHAR
STARTCHAR 2117
ENCODING 8471
SWIDTH 585 0
DWIDTH 13 0
BBX 13 15 0 0
BITMAP
1FC0
2020
4010
4FC8
8848
8848
8848
8FC8
8808
8808
4808
4810
6010
3020
0FC0
ENDCHAR
STARTCHAR 2122
ENCODING 8482
SWIDTH 585 0
DWIDTH 13 0
BBX 13 9 0 6
BITMAP
FB18
2318
2328
23A8
22A8
22A8
22C8
22C8
22C8
ENDCHAR
STARTCHAR 2126
ENCODING 8486
SWIDTH 585 0
DWIDTH 13 0
BBX 13 15 0 0
BITMAP
1FC0
3CE0
7070
6030
6038
6038
6038
6038
6038
6038
6030
6030
3020
F878
FCF8
ENDCHAR
STARTCHAR 212E
ENCODING 8494
SWIDTH 585 0
DWIDTH 13 0
BBX 13 15 0 0
BITMAP
1FC0
3060
6030
6038
E038
E038
E038
FFF8
E000
E000
6000
6000
6010
3870
0FC0
ENDCHAR
STARTCHAR 2202
ENCODING 8706
SWIDTH 585 0
DWIDTH 13 0
BBX 11 15 1 0
BITMAP
1F80
03C0
00C0
00E0
00E0
0CE0
3FE0
71E0
E0E0
C0E0
C0E0
C0E0
60C0
7F80
3F00
ENDCHAR
STARTCHAR 2205
ENCODING 8709
SWIDTH 585 0
DWIDTH 13 0
BBX 11 11 1 2
BITMAP
1F20
3FE0
60C0
41E0
C360
C620
CC60
5860
70C0
7F80
DF00
ENDCHAR
STARTCHAR 2206
ENCODING 8710
SWIDTH 585 0
DWIDTH 13 0
BBX 12 15 1 0
BITMAP
0E00
0F00
1B00
1B00
1B80
3180
3180
31C0
70C0
60C0
60E0
E060
C060
FFF0
FFF0
ENDCHAR
STARTCHAR 220F
ENCODING 8719
SWIDTH 585 0
DWIDTH 13 0
BBX 13 18 0 -2
BITMAP
FFF8
FFF8
3060
3060
3060
3060
3060
3060
3060
3060
3060
3060
3060
3060
3060
3060
3060
3060
ENDCHAR
STARTCHAR 2211
ENCODING 8721
SWIDTH 585 0
DWIDTH 13 0
BBX 12 18 1 -2
BITMAP
FFE0
FFE0
7000
7000
3800
1C00
0E00
0600
0780
0300
0600
0E00
1C00
3800
3000
6000
FFF0
FFF0
ENDCHAR
STARTCHAR 2212
ENCODING 8722
SWIDTH 585 0
DWIDTH 13 0
BBX 11 2 1 5
BITMAP
FFE0
FFE0
ENDCHAR
STARTCHAR 2215
ENCODING 8725
SWIDTH 585 0
DWIDTH 13 0
BBX 11 15 1 0
BITMAP
0060
0040
0080
0180
0100
0200
0200
0400
0C00
0800
1000
3000
2000
6000
C000
ENDCHAR
STARTCHAR 2219
ENCODING 8729
SWIDTH 585 0
DWIDTH 13 0
BBX 3 3 5 5
BITMAP
E0
E0
E0
ENDCHAR
STARTCHAR 221A
ENCODING 8730
SWIDTH 585 0
DWIDTH 13 0
BBX 12 21 1 -3
BITMAP
0030
0020
0060
0060
0060
0060
0040
00C0
00C0
10C0
F080
B080
3180
3980
1980
1900
1F00
0F00
0F00
0F00
0E00
ENDCHAR
STARTCHAR 221E
ENCODING 8734
SWIDTH 585 0
DWIDTH 13 0
BBX 12 7 1 3
BITMAP
70C0
D960
8E30
8630
8630
8B20
F1E0
ENDCHAR
STARTCHAR 222B
ENCODING 8747
SWIDTH 585 0
DWIDTH 13 0
BBX 5 23 4 -6
BITMAP
18
30
20
20
20
20
20
20
20
20
30
30
30
30
30
30
30
30
30
30
30
E0
C0
ENDCHAR
STARTCHAR 2248
ENCODING 8776
SWIDTH 585 0
DWIDTH 13 0
BBX 13 9 0 1
BITMAP
1808
7E18
E7F0
80E0
0000
3C08
7FB8
C3F0
8000
ENDCHAR
STARTCHAR 2260
ENCODING 8800
SWIDTH 585 0
DWIDTH 13 0
BBX 11 11 1 0
BITMAP
00C0
0180
FFE0
FFE0
0600
0400
0C00
FFE0
FFE0
3000
6000
ENDCHAR
STARTCHAR 2264
ENCODING 8804
SWIDTH 585 0
DWIDTH 13 0
BBX 11 12 1 0
BITMAP
0020
00E0
0FE0
7E00
F000
E000
7E00
0FC0
01E0
0020
FFE0
FFE0
ENDCHAR
STARTCHAR 2265
ENCODING 8805
SWIDTH 585 0
DWIDTH 13 0
BBX 12 12 1 0
BITMAP
8000
F000
7E00
0FC0
00F0
00F0
07E0
7E00
F000
8000
FFF0
FFF0
ENDCHAR
STARTCHAR 25CA
ENCODING 9674
SWIDTH 585 0
DWIDTH 13 0
BBX 10 15 2 0
BITMAP
1C00
1E00
3600
3300
6300
6180
C180
C0C0
C180
6100
6300
3300
3600
1E00
1C00
ENDCHAR
STARTCHAR 27E8
ENCODING 10216
SWIDTH 585 0
DWIDTH 13 0
BBX 7 15 3 -1
BITMAP
06
04
08
18
10
30
60
C0
60
20
30
18
08
04
06
ENDCHAR
STARTCHAR 27E9
ENCODING 10217
SWIDTH 585 0
DWIDTH 13 0
BBX 6 15 4 -1
BITMAP
80
C0
40
60
30
10
18
0C
08
18
30
20
60
C0
80
ENDCHAR
STARTCHAR FB01
ENCODING 64257
SWIDTH 585 0
DWIDTH 13 0
BBX 11 16 0 0
BITMAP
1EE0
1AE0
3800
3800
3800
FFE0
38E0
38E0
38E0
38E0
38E0
38E0
38E0
38E0
38E0
38E0
ENDCHAR
STARTCHAR FB02
ENCODING 64258
SWIDTH 585 0
DWIDTH 13 0
BBX 11 16 0 0
BITMAP
1EE0
1AE0
38E0
38E0
38E0
FEE0
38E0
38E0
38E0
38E0
38E0
38E0
38E0
38E0
38E0
38E0
ENDCHAR
STARTCHAR FEFF
ENCODING 65279
SWIDTH 0 0
DWIDTH 0 0
BBX 0 0 0 0
BITMAP
ENDCHAR
ENDFONT
